<svg xmlns="http://www.w3.org/2000/svg" xmlns:xlink="http://www.w3.org/1999/xlink" viewBox="0 0 118 50" fill="#fff" fill-rule="evenodd" stroke="#000" stroke-linecap="round" stroke-linejoin="round"><style><![CDATA[.B{opacity:.2}.C{fill:#2b2b2b}.D{fill:#8b4fba}.E{fill:#e65270}.F{fill:#430a1d}.G{fill:#e65271}.H{fill:#f6e8a0}.I{fill:#0d0d0d}]]></style><use xlink:href="#U" x=".5" y=".5"/><defs><linearGradient id="A" x1="166.02%" y1="-245.18%" x2="0.62%" y2="188.85%"><stop offset="38.4%" stop-color="#faa100"/><stop offset="65.8%" stop-color="#bf73f2"/><stop offset="66.5%" stop-color="#c370e6"/><stop offset="68.5%" stop-color="#cc68c7"/><stop offset="70.8%" stop-color="#d461ab"/><stop offset="73.4%" stop-color="#db5b95"/><stop offset="76.4%" stop-color="#e05784"/><stop offset="80.2%" stop-color="#e35479"/><stop offset="85.4%" stop-color="#e55272"/><stop offset="100%" stop-color="#e65270"/></linearGradient><linearGradient id="B" x1="125.15%" y1="-322.19%" x2="8.10%" y2="219.16%"><stop offset="38.4%" stop-color="#faa100"/><stop offset="65.8%" stop-color="#bf73f2"/><stop offset="66.5%" stop-color="#c370e6"/><stop offset="68.5%" stop-color="#cc68c7"/><stop offset="70.8%" stop-color="#d461ab"/><stop offset="73.4%" stop-color="#db5b95"/><stop offset="76.4%" stop-color="#e05784"/><stop offset="80.2%" stop-color="#e35479"/><stop offset="85.4%" stop-color="#e55272"/><stop offset="100%" stop-color="#e65270"/></linearGradient><linearGradient id="C" x1="51.83%" y1="-25.96%" x2="48.78%" y2="133.06%"><stop offset="0%" stop-color="#faa7b5"/><stop offset="38.4%" stop-color="#faa100"/><stop offset="73.2%" stop-color="#bf73f2"/></linearGradient><linearGradient id="D" x1="-51.92%" y1="-74.14%" x2="59.94%" y2="47.14%"><stop offset="0%" stop-color="#f6e8a0"/><stop offset="100%" stop-color="#e65271"/></linearGradient><linearGradient id="E" x1="-32.87%" y1="-15.59%" x2="69.34%" y2="93.53%"><stop offset="0%" stop-color="#f6e8a0"/><stop offset="100%" stop-color="#e65271"/></linearGradient><linearGradient id="F" x1="60.90%" y1="-44.24%" x2="38.74%" y2="102.87%"><stop offset="0%" stop-color="#f6e8a0"/><stop offset="100%" stop-color="#e65271"/></linearGradient><linearGradient id="G" x1="78.46%" y1="124.00%" x2="10.11%" y2="-99.49%"><stop offset="0%" stop-color="#e65271"/><stop offset="38.4%" stop-color="#faa100"/></linearGradient><linearGradient id="H" x1="-21.67%" y1="-38.43%" x2="118.68%" y2="98.14%"><stop offset="0%" stop-color="#f6e8a0"/><stop offset="100%" stop-color="#e65271"/></linearGradient><linearGradient id="I" x1="281.00%" y1="11.44%" x2="35.20%" y2="52.30%"><stop offset="0%" stop-color="#faa7b5"/><stop offset="38.4%" stop-color="#faa100"/><stop offset="73.2%" stop-color="#bf73f2"/></linearGradient><linearGradient id="J" x1="247.21%" y1="-128.81%" x2="-42.87%" y2="124.63%"><stop offset="0%" stop-color="#faa7b5"/><stop offset="38.4%" stop-color="#faa100"/><stop offset="73.2%" stop-color="#bf73f2"/></linearGradient><radialGradient id="K" cx="66%" cy="79%" r="71%" fx="66%" fy="79%"><stop offset=".9%" stop-color="#fff"/><stop offset="100%" stop-color="#fff" stop-opacity="0"/></radialGradient><radialGradient id="L" cx="152%" cy="-9%" r="123%" fx="152%" fy="-9%"><stop offset=".9%" stop-color="#fff"/><stop offset="100%" stop-color="#fff" stop-opacity="0"/></radialGradient><radialGradient id="M" cx="39%" cy="30%" r="79%" fx="39%" fy="30%"><stop offset=".9%" stop-color="#fff"/><stop offset="100%" stop-color="#fff" stop-opacity="0"/></radialGradient><linearGradient id="N" x1="91.34%" y1="-51.19%" x2="15.32%" y2="148.94%"><stop offset=".4%" stop-color="#faa7b5"/><stop offset="38.4%" stop-color="#faa100"/></linearGradient><linearGradient id="O" x1="88.74%" y1="-131.52%" x2="20.87%" y2="148.07%"><stop offset="0%" stop-color="#faa7b5"/><stop offset="38.4%" stop-color="#faa100"/><stop offset="73.2%" stop-color="#bf73f2"/></linearGradient><linearGradient id="P" x1="113.95%" y1="-164.45%" x2="35.54%" y2="103.74%"><stop offset="0%" stop-color="#faa7b5"/><stop offset="38.4%" stop-color="#faa100"/><stop offset="73.2%" stop-color="#bf73f2"/></linearGradient><linearGradient id="Q" x1="15.55%" y1="-98.47%" x2="62.92%" y2="111.70%"><stop offset="0%" stop-color="#faa7b5"/><stop offset="38.4%" stop-color="#faa100"/><stop offset="73.2%" stop-color="#bf73f2"/></linearGradient><linearGradient id="R" x1="66.10%" y1="-151.58%" x2="14.10%" y2="471.63%"><stop offset="0%" stop-color="#faa7b5"/><stop offset="38.4%" stop-color="#faa100"/><stop offset="73.2%" stop-color="#bf73f2"/></linearGradient><linearGradient id="S" x1="117.90%" y1="-62.00%" x2="-13.24%" y2="154.37%"><stop offset="0%" stop-color="#faa7b5"/><stop offset="38.4%" stop-color="#faa100"/><stop offset="73.2%" stop-color="#bf73f2"/></linearGradient><path id="T" d="M49.748 42.18c-.02.01-.02.01-.03.02-.38.74-1.07 1.06-1.9 1.13a8.3 8.3 0 0 1-3.94-.67c-.53-.23-.98-.56-1.23-1.07-.1-.22-.17-.46-.25-.7-.27 0-.6.25-.62.52-.01.1.03.2.08.27.17.34.45.6.75.82a6.8 6.8 0 0 0 2.63 1.18 7.7 7.7 0 0 0 3.79-.06c.3-.1.58-.23.86-.37.2-.1.32-.3.3-.52-.03-.25-.2-.46-.43-.55z"/></defs><symbol id="U" overflow="visible"><g stroke="none" fill-rule="nonzero"><path d="M32.548 47.64l-14.2-.01c-1.42-.01-2.8-.17-4.05-.48-5.04-1.23-8.85-4.03-11.34-8.3-1.2-2.05-1.86-4.34-2-6.8-.06-1.12 0-2.24.18-3.35a5.66 5.66 0 0 1 .08-.4l.05-.3.1.1c.05.05.07.1.08.14l.14.45c.1.3.2.64.32.95a21.7 21.7 0 0 0 3.97 6.55.76.76 0 0 1 .16.26c.6 1.76 1.7 3.34 3.18 4.57 1.46 1.2 3.2 2.13 5.2 2.7a15.25 15.25 0 0 1-3.52-1.95c-1.74-1.28-3-2.85-3.72-4.66-.07-.18-.13-.4-.03-.65.03-.08.05-.16.08-.25.01-.06.03-.12.05-.18.4-1.2 1-2.14 1.82-2.88.78-.68 1.77-1.2 3.03-1.53 1.18-.33 2.4-.47 3.6-.6l.5-.06 2.4-.33c.15-.02.3-.05.44-.08l.36-.08-.1.16-.03.03c-.6.65-1.13 1.37-1.53 2.14-.04.07-.1.12-.18.15l-.26.08c-.28.08-.57.17-.86.23l-1.7.25c-.83.13-1.47.38-1.96.77.1-.03.22-.04.32-.06.16-.02.3-.04.45-.1a8.7 8.7 0 0 1 2.65-.36h.14c.2 0 .38.01.57.02l.36.01-.03.1a10 10 0 0 0 .06 6.66c-.32-1.45-.38-2.8-.18-4.1a8.5 8.5 0 0 1 2.8-5.12 13.5 13.5 0 0 1 3.99-2.41c1.399-.552 2.845-.977 4.32-1.27l.27-.06 3.04-.73a9.9 9.9 0 0 0 3.88-2.02c.16-.14.35-.3.5-.47 1.02-1.25 2.22-2.13 3.65-2.7.04-.02.1-.06.12-.1.47-.72 1.03-1.25 1.72-1.62a.95.95 0 0 1 .45-.12c.2 0 .38.07.56.2a3.47 3.47 0 0 1 .2.15c.25.23.44.5.6.88.02.04.04.06.1.06.17.03.35.05.53.08a6.3 6.3 0 0 1 5.32 5.5c.01.08.01.15.02.23.01.18.03.37.1.54a3.52 3.52 0 0 0 .3.62l.13.27.12.23c.1.18.2.37.27.56a1.33 1.33 0 0 1 .04.9c-.04.13-.12.15-.17.15-.04 0-.08-.01-.1-.03-.08-.05-.16-.1-.23-.16-.04-.03-.08-.05-.1-.08l-.12-.1c-.1-.06-.18-.13-.28-.18-.04-.02-.07-.03-.1-.03s-.07.01-.1.03l.14.12.74.6a.28.28 0 0 1 .08.2c-.03.42-.2.78-.48 1.05-.34.33-.7.48-1.1.48-.08 0-.17 0-.25-.02-.02.14-.05.2-.18.26-.8.4-1.6.6-2.4.6h-.13c-.55 0-1.1.15-1.7.46a3.58 3.58 0 0 1-.57.23c-.5.13-1.04.17-1.5.2a4.31 4.31 0 0 0 .64.04c.15 0 .3 0 .46-.01l.1-.01c.07-.01.14-.01.2-.01.1 0 .16.01.22.03.42.16.84.36 1.23.55.07.03.13.04.18.04.03 0 .05 0 .08-.01l.1-.04c.22-.08.44-.15.64-.24.5-.2.93-.3 1.35-.3a2.04 2.04 0 0 1 .34.03c.3.03.63.1.93.27.15.1.35.23.37.5 0 .01.01.02.04.04.04.04.07.06.1.1l.12.1c.23.2.35.48.3.77-.01.08-.03.28-.2.28-.05 0-.12-.02-.2-.06-.03-.02-.07-.03-.1-.04.085.052.172.102.26.15.2.13.3.33.3.6-.02.56-.66 1.1-1.3 1.1a1.64 1.64 0 0 1-.23-.02c-.2-.04-.43-.12-.57-.35-.01-.01-.03-.02-.03-.02h-.1c-.13.01-.27.01-.4.04l-.04.01c-.2.04-.43.1-.66.1-.1 0-.17-.01-.25-.02a3.25 3.25 0 0 1-.3-.07l-.08-.01a2.51 2.51 0 0 1-.55.98 4.7 4.7 0 0 1-2.32 1.46c-.72.22-1.5.33-2.3.33a10.1 10.1 0 0 1-1.32-.09c-1.78-.23-3.03-1.14-3.7-2.7-.12-.26-.2-.54-.27-.8l-.1-.4c-.2-.67-.48-1.26-.82-1.82-.6-1-1.36-1.7-2.3-2.17a5.4 5.4 0 0 0-2.46-.56 7.49 7.49 0 0 0-1.14.09c-.08.02-.16.03-.24.05.267.006.534.023.8.05 1.23.1 2.34.47 3.32 1.04 1.32.8 2.14 1.77 2.48 3a10.8 10.8 0 0 0 .82 2.03c.2.38.47.82.84 1.2a4.6 4.6 0 0 0 2.13 1.13l.76.2a.49.49 0 0 1 .3.28c.14.35.18.7.1 1.07-.1.52-.37 1-.8 1.48a5.5 5.5 0 0 1-1.19.9c-.2.13-.4.27-.58.42-.15.12-.23.28-.22.45.01.28.03.3.1.3.04 0 .12-.02.23-.06l.18-.06.34-.14.6-.24c.43-.16.85-.25 1.26-.25.22 0 .44.02.65.07.77.17 1.27.6 1.5 1.27.06.18.06.33-.02.46-.06.08-.18.15-.28.15s-.18-.07-.24-.14c-.04-.04-.05-.1-.06-.13v-.05c-.07-.24-.17-.4-.3-.5.26.32.37.67.35 1.05s-.33.65-.74.65h-.05c-.16-.01-.26-.1-.28-.22-.01-.1-.01-.2-.01-.28v-.25c0-.1 0-.2-.01-.3-.03-.2-.17-.35-.4-.42-.01-.01-.03-.01-.05-.01.08.03.14.1.18.16.08.15.15.28.2.43.1.38.01.7-.3.87-.15.1-.35.13-.52.15-.07.01-.14.02-.2.02-.25 0-.5-.06-.75-.1l-.12-.03c-.23-.05-.43-.08-.63-.08-.17 0-.34.03-.5.06h-.08c-1.155.208-2.326.315-3.5.32z" class="E"/><path d="M42.927 33.71s-1.88 2.1-5.07.9c-2.92-1.1-1.86-4.14-1.86-4.14s.52 1.88 2.03 2.6c2.2 1.03 4.9.65 4.9.65zm-9.26.9c.4.38.4.78.54 1.26.24.9.54 1.7 1.16 2.45.6.7 1.3 1.22 2.22 1.55.8.3 1.82.2 1.66 1.3l-.26.93c-2.04 0-3.94-.87-4.72-2.75-.68-1.66.12-3.66-1.94-6.46.17.18 1.12 1.5 1.33 1.7z" class="B F"/><path d="M32.847 33.78l.1.36c-.08-.1-.12-.2-.1-.36z" class="B C"/><path d="M9.148 41.03c-7.67-.7-8.57-7.86-8.57-7.86s-.42-3.3.55-6.56c.63 5.9 5.7 10 5.7 10s1.1 3.37 2.32 4.42z" fill="url(#A)"/><path d="M7.247 38.31s-1.6.14-3.76-2.3c2.07 3.5 4.75 3.6 4.75 3.6z" class="B C"/><path d="M11.397 42.41c-.4-6.6 3.75-3.54 5.9-7.04.6-3.07 2.4-5 2.4-5s-12.85-2.26-13.05 6.51c.45 1.9 2.4 3.73 3.64 4.72-.24-.5-3.3-8.4 6.9-7.76-3.52-.28-8.6 3.17-6.18 8.33.128.086.258.169.39.25z" fill="url(#B)"/><path d="M14.868 32.88c-2.65.93-7.16.93-5.88 7.27-.2.14-1.23-1.35-.97-1.2-1.18-5.67 4.12-5.34 6.85-6.07z" class="B"/><path d="M18.228 30.61c2.58-.95.48 1.76.12 2.2-.85 1-3 .68-4.13 1-.66.2-3.3.55-4.16 2.9-.4 1.03-.54 2.72.3 4.77-.2.15-1.56-1.24-1.3-1.1-2.18-9.1 8.1-5.84 9.2-9.76z" opacity=".6" class="D"/><path d="M43.887 26.88c.07-.18.2-.4.34-.55.03.02.07.02.1.04.25-.15.66-.13.97-.13.2 0 .46-.05.64.01.27.1.24.36.35.56.2.37.86.38.85.9.01.25.07.58.01.82-.06.18-.27.13-.45.13h-1.68l-.77-.54c-.2.06-.37-.34-.4-.48-.04-.23-.05-.54.04-.77z" fill="#f9e0e7"/><path d="M46.467 27.61c.1-.04.23-.18.3-.26.04-.06.03-.1.12-.1.24.01.24.3.23.46-.02.2-.1.38-.13.57-.08-.02-.12-.1-.2-.13-.07-.02-.16-.01-.24-.01-.1.01-.25.07-.34.04z"/><path d="M15.878 17.93l.05-.06c1.03-.9 1.57-2.02 1.86-3.3.2-.82-.05-1.55-.45-2.27-.01-.01-.02-.02-.03-.04l-.24.7c-.2.55-.46 1.1-.86 1.55-.16.18-6.85 3.65-6.16 11.33a.59.59 0 0 0 .02.14c.12-.1.23-.22.36-.3.44-.32.96-.53 1.5-.67l2.96-.72c1.14-.25 2.27-.5 3.36-.88.6-.22 1.2-.5 1.73-.86.8-.52 1.5-1.14 2.12-1.86a3.3 3.3 0 0 0 .67-1.23c.1.25.05.96-.1 1.4-.15.47-.42.87-.77 1.25.08-.03.17-.04.25-.08.95-.5 1.8-1.14 2.43-2 .42-.58.67-1.2.7-1.92 0-.01.01-.02.01-.03.2.86.17 2.33-.87 3.37.37-.12.7-.24 1.04-.33.28-.08.47-.24.62-.47.68-1 1.25-2.07 1.56-3.24a5.1 5.1 0 0 0 .03-2.71 4.5 4.5 0 0 0-1.87-2.44c-.62-.43-1.3-.75-2.04-1.02-.04-.02-.08-.03-.13-.05 0 0-.01-.01-.03-.04l.7.18c1.04.3 2.03.66 2.9 1.27.8.54 1.4 1.2 1.7 2.1a4.1 4.1 0 0 1 .05 2.38c-.28 1.16-.86 2.2-1.56 3.18l-.07.1v.03c.03-.01.05-.02.07-.03a11.5 11.5 0 0 0 3.83-2.82 9.3 9.3 0 0 0 2.11-3.98c.44-1.87-.05-3.54-1.34-5a9.8 9.8 0 0 0-2.96-2.21 14.3 14.3 0 0 0-4.62-1.44c-.93-.13-1.85-.15-2.78.02-.5.1-.84.2-1.4.52l.2-.17c.5-.36 1.1-.55 1.7-.66 1-.2 2.04-.2 3.06-.08a15.09 15.09 0 0 1 4.53 1.24l.43.2c0-.12-.01-.23 0-.33.01-.16.1-.25.24-.27.13-.02.2.03.23.15.02.1.02.2.04.3.04.23.15.43.32.6.02.01.04.03.06.04.01.01.02.01.06.01v-.23c0-.16-.01-.3-.01-.47 0-.03.03-.1.06-.1.04-.01.1 0 .13.03a.77.77 0 0 1 .17.27c.06.2.1.4.16.6.05.13.1.25.2.36.1.12.2.1.23-.05.04-.13.05-.27.07-.4.01-.05.01-.1.03-.14.01-.04.04-.07.06-.1.04.03.08.05.1.1.03.08.07.16.07.25.01.2-.01.37.01.56 0 .1.04.2.1.3s.15.08.18-.02c.05-.16.07-.3.1-.47l.08-.34c.13.1.16.22.18.34l.08.9c.02.23.1.43.25.63.258.356.502.723.73 1.1.12.2.23.2.34.01.13-.22.22-.46.33-.7.05-.1.1-.2.14-.3a.45.45 0 0 1 .1-.14c.1.07.16.2.13.3-.04.17-.1.34-.15.5-.05.2-.1.36-.14.55-.01.08.03.17.07.24.05.1.13.12.22.04.1-.1.16-.2.25-.28.05-.04.1-.07.17-.1.04.07.1.14.1.2-.01.14-.05.3-.1.42-.1.26-.26.52-.36.8-.07.2-.08.4-.1.6 0 .05.04.14.1.16.04.01.13-.03.17-.07l.53-.58c.05-.05.1-.08.16-.12.01.01.03.01.05.02-.02.1-.02.23-.06.33a3.3 3.3 0 0 1-.26.49c-.16.24-.35.47-.52.7a4.5 4.5 0 0 0-.64 1.45c-.1.37-.22.73-.33 1.1-.02.05-.03.1-.04.14l.3-.45c.2-.3.46-.6.8-.8.17-.1.35-.2.54-.27.97-.33 1.96-.64 2.88-1.08.265-.125.52-.272.76-.44.3-.18.43-.53.32-.84l-.2-.74-.45.67c-.16.22-.36.4-.65.52.03-.05.04-.07.05-.1.4-.52.64-1.12.83-1.74.01-.07-.01-.14-.02-.2-.08-.45-.04-.9-.02-1.36.01-.1 0-.18-.01-.27 0-.05-.04-.1-.08-.1-.02-.01-.1.02-.12.05-.1.12-.2.24-.26.38l-.73 1.66c-.3.7-.64 1.36-1.16 1.94-.24.26-.5.5-.83.65-.06.03-.13.05-.2.07.5-.5.62-1.1.64-1.74.04-.8.02-1.63.03-2.44a8.4 8.4 0 0 1 .36-2.59c.01-.03 0-.08-.02-.12-.08-.14-.18-.28-.25-.43-.14-.3-.25-.63-.4-.94-.07-.18-.1-.2-.3-.18-.23.01-.37-.1-.5-.26-.1-.1-.13-.1-.2.02-.07.14-.12.3-.2.44-.02.05-.1.08-.14.12-.03-.05-.1-.1-.1-.15-.02-.17-.01-.35-.03-.52a.8.8 0 0 0-.05-.26c-.01-.03-.07-.08-.12-.08-.03 0-.1.05-.1.1-.05.12-.07.25-.12.38-.03.1-.08.1-.14.03-.47-.6-1.1-1.02-1.75-1.4l-.6-.34c-.01.01-.02.01-.04.01l.08.6c-.02.01-.04.01-.05.02a1.43 1.43 0 0 0-.2-.14c-.13-.15-.24-.3-.37-.44-.26-.28-.6-.5-.9-.56l.28.92c-.01.01-.03.02-.05.02l-.1-.1c-.08-.1-.15-.23-.22-.35-.3-.5-.76-.8-1.37-.88a26.01 26.01 0 0 0-1.24-.12 2.6 2.6 0 0 1-.88-.18c-.2-.1-.4-.14-.6-.2-.03-.01-.08.01-.12.01.01.04 0 .1.01.12l.3.53c.04.06.06.13.1.2l-.03.03c-.06-.02-.12-.03-.18-.06l-.77-.4c-.26-.14-.55-.15-.84-.18-.9-.07-1.78-.01-2.64.24a4.19 4.19 0 0 0-1.44.7c.06 0 .1 0 .17-.01.52-.1 1.04-.2 1.58-.18.36.01.72.06 1.04.24.05.02.08.08.12.12-.07.03-.15.07-.2.06-.17-.01-.33-.07-.5-.08-.54-.05-1.05.07-1.56.2a10.6 10.6 0 0 0-3.38 1.55l-.78.48a3.8 3.8 0 0 0-1.25 1.17.81.81 0 0 0-.1.18.28.28 0 0 0 .16.4 1.7 1.7 0 0 0 .4.13c1.84.42 3.2 1.84 3.43 3.6.08.66.17 1.32.14 2a6.1 6.1 0 0 1-1.76 4.01c-.65.68-1.42 1.22-2.27 1.68-.01.01-.03.01-.08.04z" fill="url(#C)"/><path d="M39.488 7.74c-.78 5.72-3.5 4.42-5.27 7.6-.1-.12-.32.86.13-.95.44-1.8 1.73-1 2.94-3.07 1.54-2.62 1.23-2.86 2.2-3.6z" class="B D"/><path d="M31.397 7.85c-.3 1.63-2.77 1.56-4.88.87-2.3-.76-7.08-1-7.46-.1-.2.2-.58-.64-.58-.64s3.63-3.7 9.7.2c-.25-.36 2.18-1.4 2.18-1.4s.73-.2 1.04 1.08z" opacity=".3"/><g class="D"><path d="M18.808 23.56c.13.3 1.2.1 1.3-.38-1.6-1.68 2.6-4.76-1.26-8.8 2.52 6.2-2.84 6.47-.05 9.17z" class="B"/><path d="M18.808 23.56c.13.3.1.22.2-.26-1.58-1.68 2.64-4.13-.16-8.9 2.52 6.2-2.84 6.47-.05 9.17z" opacity=".6"/></g><path d="M24.577 22.34c7.6-7.5-2-6.24-5.15-11.33.01-.1.01-.18.01-.27a4.1 4.1 0 0 0-.5-1.96c2.94 4.08 10.38.48 8.93 8.8-.13.43-1.16 4.65-3.3 4.75z" fill="url(#D)"/><path d="M24.578 22.33c-3.13 1.44-5.87 1.48-5.75 1.06 6.23-3.96 1.2-8.03.03-11.87.08-.3.58-.43.58-.78v-.1c.1.38.3.52.5.7 2.9 2.73 12.1 3.64 4.63 11z" fill="url(#E)"/><path d="M23.598 22.23c4.82-6.74-4.18-8.02-4.1-10.16-.72 4.4 7.9 6.28-.2 11.53-.13.43 1.17.06 4.3-1.38z" class="G"/><path d="M37.068 10.52c.4.6-.04 1.3-.48 1.97-.42.6-1.4.4-2.08 1.88l.05-1.15c.75-1.22-.5-2.9-.86-4.03-.6-1.93-1.26-3.7-.46-5.67l.15-.4c.4.27.7.55 1.04.96.22.28.14-.7.44-.5.22.15-.01.85.2 1 .23.2.37-.88.54-.65.4.56.62.2.78.37.16.15.5 1.3.65 1.47l.4.46c-.08.85-.26 1.8-.55 2.55-.27.72-.28 1.02.18 1.74z" fill="url(#F)"/><path d="M26.348 1.71c.02.01.04.01.05.01.2 0-.57-.92-.35-.92.38 0 .9.37 1.28.4.78.06 1.6.04 2.3.34.66.28.95 1.17 1.1 1.2.15.04-.36-1.02-.2-.97.25.08.45.2.6.32.65.88.87 5.22-.1 5.1-1-.12 1.6.33 1.6.3.87-3.07-1.07-4.95-.98-4.85.1.14.2.25.3.3.2.07-.13-.74.06-.63l1.38.82c.01.02.01.05.03.05.26-.1 1.85-.45.64 4.9 1.84-3.48.4-4.84.54-4.7.65.66.78 2.27.87 3.22.08.9-.52 2.94-1.3 3.6-.55.48-.54-.1-.75-.56-.34-.75-.96-1.35-1.52-1.96-.42-.46-.93-.8-1.4-1.2-.5-.45-.77-1.07-1.22-1.56-.4-.44-.9-.8-1.28-1.24-.43-.5-.7-1.1-1.2-1.57-.15-.15-.32-.26-.48-.38z" class="G"/><path d="M29.877 1.23c1.13-.01 1.83.5 2.76.98.77.4 1.72.4 2.37.95a3.7 3.7 0 0 1 1.4 2.54 12.2 12.2 0 0 1-.04 4c-.12.63-.6 1.9-1.1 2.37l-.6-.36c-1.2-2.86-4.76-4.04-6.1-6.86-.4-.82-.55-1.9-.56-2.8-.01-.94 1.07-.8 1.88-.8z" fill="url(#G)"/><path d="M18.697 8.38c-.65-.95-1.7-1.65-2.9-1.9-.3-.07-.87-.25-.32-.86.6-.86 1.43-1.2 1.88-1.5 1.83-1.28 1.07-1.4 2.14-1.52.4-.04.3-.08.52 0 .2.08-.17-.05-.3-.13-1.2-.74-1.1.73-.6.4a12.3 12.3 0 0 1 6-1.71c.14.02 1.13.55 1.28.55.2 0-.57-.92-.34-.92.37 0 .9.37 1.28.4.76.06 3.1 1.06 3.07 3.7 0 .8.05 1.36-.06 1.9-.85 3.84-9.45-1.55-11.66 1.6z" class="H"/><path d="M28.987 6.01c-.4-.46-3-1.3-3-1.3s-4.3-1.4-8.26 2.56c2.03-1.5 5.6-.88 8.16-.6.34.04-.73-.28-.45-.37.95-.34 1.84.6 2.8.4.45-.08.7-.3.75-.7z"/><path d="M25.687 5.36c-1.58-.4-3.16.18-3.46.2.14-.2.38-.66 1.55-.82.26-.04.8 0 1.1 0 .5 0 .8.1 1.26.3a3.4 3.4 0 0 0 1.19.24c.408.008 2.42.17 1.62.93-.8.77-1.97-1-4.54-.42.01-.08.6-.47 1.3-.44z" class="H"/><path d="M23.297 2.18c-1-.62-2.74-.1-2.97-.1 0-.02.01-.05.05-.07 1.52-1.1 3.77-1 4.75-.84h.05l1.16.52c1.48.78 3.8 2.44 4.02 5.06-.84-.35-1.44-.7-1.9-1.02-.15-.1-3.7-3.57-13.04.58 0 0-.26-.13-.1-.44 2.1-3.18 5.97-4.1 12.1-1.08-.87-.97-1.3-1.85-4.1-2.64z" fill="#f8d285"/><path d="M29.277 20.03c3.46-3.3 4.88-5.8 3.2-8.45-2.72-4.33-11.08.18-14.72-4.18a8.5 8.5 0 0 0 2 1.63c2.7 1.65 7.77 1.12 9.4 2.4 2.08 1.64 2.6 4.95.13 8.6z" fill="url(#H)"/><path d="M17.988 13.1c-.01.22.53 1.5.45 1.8-.73 2.52-3.9 3.76-3.9 3.76s-3.55 1.33-4.1 7.43c-.64.43-.55-.5-.53-.9.4-8 7.5-7.1 8.08-12.1z" fill="url(#I)"/><path d="M30.047 26.31l-.18-.07-.93-.24c-.1-.02-.2-.07-.3-.1v-.06c.12-.02.23-.05.34-.05h1.34c.63 0 1.26 0 1.87-.17.3-.1.6-.2.86-.36a13 13 0 0 0 6.13-6.54 14.07 14.07 0 0 0 .6-1.8c.01-.04.01-.07.02-.13-.04.03-.07.04-.1.06a15.6 15.6 0 0 1-5.78 2.26c-.75.128-1.509.202-2.27.22-.06 0-.13.02-.17.06-1.14 1.1-2.5 1.9-3.94 2.56-1.16.54-2.4.86-3.64 1.1l-4.85.86-5.87 1.36c-1.22.38-2.4.85-3.47 1.5-.8.5-1.54 1.1-2.05 1.87-.18.28-.3.6-.46.88a.71.71 0 0 1-.1.14c-1.07.98-1.5 2.17-1.33 3.55.13 1.03.52 1.96 1.07 2.84a2.38 2.38 0 0 1 .18.3l.08-.72c.24-1.57 1.1-2.74 2.58-3.53.86-.45 1.78-.75 2.74-.95l3.16-.58 3.82-.77.73-.24a3.46 3.46 0 0 0 .86-.43 12.5 12.5 0 0 1 2.87-1.45l.1-.03v-.02h-3.51c-1.022-.02-2.045.03-3.06.15-1.4.17-2.76.5-4.08.98-1.57.56-3.04 1.27-4.48 2.07-.03.03-.07.05-.13.06.03-.02.06-.05.08-.07a21.6 21.6 0 0 1 5.08-2.73 16.8 16.8 0 0 1 3.98-.9c1.2-.12 2.4-.1 3.62-.03l3.13.2c.1.01.2 0 .27-.03 1.038-.276 2.094-.476 3.16-.6l1.87-.35c.05 0 .1-.03.13-.04v-.04z" fill="url(#J)"/><path d="M10.827 29.6c4.08-4.57 14.7-2.18 19.2-3.3-2.86 1.54-5.2 1.27-5.2 1.27s-9.77-1-14.03 2.03z" class="B"/><path d="M42.087 12.26l-.34.06-1.1.34c-.328.156-.637.351-.92.58l-1.62 1.3c-.45.35-.92.66-1.5.82-.18.05-.37.08-.56.1.74-.34 1.15-.96 1.57-1.6-.03 0-.05 0-.06.01-1.12.5-2.2 1.06-3.2 1.77-.27.2-.48.4-.63.7-.24.47-.54.9-.82 1.36l-.05.1.66-.13c.862-.226 1.697-.544 2.49-.95 1.25-.6 2.44-1.3 3.6-2.06l.12-.06c-.01.02-.02.03-.03.04-1.38 1.28-2.9 2.34-4.7 3.04-.78.3-1.6.5-2.43.58-.03.01-.07.02-.08.04l-.58.66 1.47-.3c1.34-.3 2.65-.66 3.9-1.2.92-.4 1.8-.86 2.55-1.52.98-.87 1.7-1.9 2.12-3.1.06-.18.08-.37.13-.6z" class="G"/><path d="M18.917 23.88l1.33-.45c5.7-1.66 7.57-3.04 7.57-3.04l5.73-3.95s.93.66 2.14-.2c-.82.93-3.35 1.65-3.35 1.65s-.12.72-.94 1.3c2.25-.72 6.03-.5 8.65-2.72-1.98 5.25-6.9 1.25-11.67 4.5-.55.3-7.8 2.05-4.2 1.93s6 2.18 9 1.43c-2.83.96-5.33-.58-9.27-.84.6.12 1.45.43 1.8.86-1.43-.95-4.22-1-4.9-.78a20.4 20.4 0 0 0-1.9.33z" opacity=".6" class="D"/><path d="M32.577 25.51c-4.15 1.54-18.8-2.92-25.38 4 0 0-.5-.2 2.12-2.95 10.3-4.6 17.97-.25 23.26-1.05z" class="B C"/><path d="M38.987 19.38c1.23-.64.23.93-1 1.87-4.83 3.15-7-.44-11.8 1.3 7.33-3.78 8.05.93 12.8-3.16z" fill="url(#K)" opacity=".7"/><path d="M38.607 20.28c1.23-.64.6.04-.62.97-4.83 3.16-7-.43-11.8 1.3 4.7-2.46 7.67 1.82 12.42-2.27z" class="B D"/><path d="M14.767 18.58c-2.23 1.9-.48 6.1-.48 6.1l-1.6.32s-1.6-4.05 2.07-6.42z" fill="url(#L)" opacity=".7"/><path d="M18.617 15.38c1.7 2.8-2.78 6.66-.38 8.03-.04.18-1.37.8-1.3.62-2.96-4.24 1.92-5.26 1.28-7.9-3.42 4.36-3.46 5.23-1.8 8-.02.01-.2.23-.38.1-2.6-1.83-3.33-3.88 2.6-8.85z" fill="url(#M)" opacity=".7"/><path d="M24.128 21.08c.1 1.3 1.08-.82 1.23-2.3.13-5.5-5.84-4.17-6.1-8.63-.58 5.07 5.88 4.96 4.88 10.93z" class="B D"/><path d="M29.907 18.88c.1 1.32 2.92-2.06 3.07-3.53-.94-9.46-11.34-3.7-14.06-7.2 2.24 3.8 16.78-1.5 11 10.72z" opacity=".3"/><path d="M48.948 37.28l-.42.34c-.1.08-.23.15-.36.2-.3.14-.6.16-.9.01-.48-.24-1-.26-1.52-.2-.15.01-.25.08-.32.2a4.4 4.4 0 0 1-2.5 2.07c-.12.05-.18.1-.2.23-.06.32-.08.64 0 .96.14.5.48.88.94 1.16a5.1 5.1 0 0 0 1.57.61 9.17 9.17 0 0 0 2.03.25 4 4 0 0 0 1.03-.13c.75-.2 1.2-.68 1.38-1.4l.27-1.4a3.5 3.5 0 0 0-.95-2.86c-.02-.02-.03-.04-.04-.06z" fill="url(#N)"/><path d="M46.767 37.36c.06.33.7.4 1 .4.52-.01.87-.3 1.2-.68.05-.05.1-.12.14-.18.6.45.93 1.05.84 1.67-.16 1.08-1.6 1.8-3.2 1.6-1.1-.14-2-.7-2.4-1.38.3-.35.4-.8.8-1.1.38-.3 1.12-.34 1.6-.32z" opacity=".3" class="H"/><path d="M7.807 27.14c.35.16.6.2.8.12-.24-1.18-.37-2.36-.33-3.56a8.9 8.9 0 0 1 .91-3.81 3.4 3.4 0 0 1 .28-.45c-.01.03-.01.05-.02.07a7.4 7.4 0 0 0-.54 2.44c-.08 1.3.1 2.6.4 3.88l.03.1.58-.36c.02-.02.02-.08.02-.1a9 9 0 0 1 0-2.32 12.4 12.4 0 0 1 .83-3.22c.58-1.45 1.37-2.8 2.33-4.05l.06-.1c.01-.01.01-.02.01-.04l-.4.13c-.88.3-1.75.64-2.58 1.05-.13.06-.26.14-.37.23a6.3 6.3 0 0 0-2.17 3.63l-.15.64.05-.7c.1-1.13.32-2.23.73-3.3.1-.27.03-.5-.01-.77-.02-.08-.08-.15-.12-.22-.06.06-.14.1-.2.17-.33.5-.54 1.05-.72 1.6-.255.857-.443 1.733-.56 2.62a15.9 15.9 0 0 0-.2 2.49c.01.84.07 1.67.37 2.48.15.38.34.74.6 1.05l.33.3h.03z" fill="url(#O)"/><path d="M11.898 15.78s-2.24.3-3.2 1.74c-.94 1.44-1.2 3.9-1.2 3.9s-.48 3.7 1.12 5.84c-1.02-7.88 3.28-11.5 3.28-11.5z" class="B C"/><path d="M7.808 27.14h-.02c-.46-.16-.82-.46-1.12-.82-.43-.53-.65-1.15-.8-1.8a9.4 9.4 0 0 1-.14-2.9l.2-1.66c0-.02 0-.04.01-.08l-.1.07a16.1 16.1 0 0 0-3.84 5.74c-.02.05-.01.13.01.2a17.7 17.7 0 0 0 2.12 4.24l1.2 1.66.12.15c.02-.28.18-.5.06-.77-.16-.35-.26-.7-.24-1.1.01-.15.04-.28.15-.4.1.28.18.55.42.76.06-.12.08-.22.03-.34-.16-.45-.27-.9-.24-1.4.01-.15.05-.3.1-.44.14.36.37.65.64.94.02-.02.03-.04.04-.05a7.68 7.68 0 0 1 1.36-1.9c.03-.03.02-.08.03-.1z" fill="url(#P)"/><path d="M6.077 28.98s-2.53-4.6-1.33-8.57c.14-.1-.24.17-.7.66-.07.08-.92 5.3.8 7.6-2.3-2.56-1.22-7.12-1.3-7-.2.3-.4.6-.52.93-1.17 5.16 2.9 8.26 2.9 8.26z" class="B C"/><path d="M44.587 45.58l-.32.46c-.08.15-.1.32-.04.5.07.2.22.3.45.26l.55-.06c.2-.01.2.02.24.2 0 .04.01.1.03.14.07.17.18.33.4.35.22.03.37-.08.48-.24.17-.2.2-.48.1-.72-.12-.23-.35-.4-.63-.43-.18-.02-.38.01-.57.01-.03.01-.07.01-.1.01v-.03c.05-.05.1-.13.15-.16.14-.08.3-.1.45-.1 1.03.1 2 0 2.88-.58a3.6 3.6 0 0 0 1.11-1.22c.04-.1.1-.2.02-.28-.06-.04-.18-.02-.26.01l-1.15.36c-.56.15-1.15.15-1.73.12a8.2 8.2 0 0 1-2.31-.41 6.9 6.9 0 0 1-2.24-1.28c-.07-.07-.15-.13-.23-.2-.15-.08-.24-.04-.25.12a1.4 1.4 0 0 0 .04.35c.27 1.13 1 1.93 2.1 2.46.3.14.6.24.87.35z" class="E"/><path d="M1.278 24.38a14.6 14.6 0 0 0 4.31 10.7l-.12-.84-.1-1.43c0-.1-.03-.18-.08-.25-1.121-1.46-2.099-3.023-2.92-4.67-.424-.824-.743-1.697-.95-2.6l-.14-.9z" fill="url(#Q)"/><path d="M37.168 10.88c.53-.85 1.07-1.67 1.26-2.63.04-.16.03-.34.02-.5a6.7 6.7 0 0 1 .36-2.73c.03-.08.07-.16.07-.24a.32.32 0 0 0-.1-.2c-.06-.06-.14-.04-.22 0-.25.13-.43.32-.57.55-.3.45-.45.95-.56 1.46-.3 1.4-.35 2.82-.3 4.24 0 .01.01.02.02.05z" fill="url(#R)"/><path d="M37.477 5.45c.181-.272.4-.518.65-.73l.36-.2a6.6 6.6 0 0 0-.49 2.63c0 .77.25 1.48.3 2.24.03.63-.26.94-.6 1.45-.15.23-.37.73-.7.73-.16-.36-.13-.8-.14-1.2l-.06-1.4c.04-.9.55-3.2.7-3.52z" opacity=".4" class="D"/><use xlink:href="#T" class="E"/><use xlink:href="#T" opacity=".4" class="C"/><path d="M35.948 30.35a2.6 2.6 0 0 0 .31 1.3 3.7 3.7 0 0 0 2.02 1.72c.77.3 1.58.4 2.42.37.01 0 .02 0 .05-.01-.56-.08-1.12-.22-1.65-.42-.9-.34-1.7-.82-2.34-1.55a4.1 4.1 0 0 1-.76-1.29l-.05-.12zm6.82-6.6c.9-.52 1.1-1.72.52-2.4.13.86-.05 1.66-.52 2.4zm1.48 4.74c.44.34.97.43 1.52.42.22 0 .44-.04.66-.05.124-.005.248.005.37.03.22.04.32.01.4-.2.17-.46.25-.93.2-1.4a2.2 2.2 0 0 0-.17-.68c-.4-.84-1.55-1.2-2.4-.73-.113.061-.22.131-.32.21l-.3.26.13.14c.1.1.14.22.1.35-.1.42.1.72.47.9.271.129.552.236.84.32.15.05.3.08.46.1.05 0 .07-.01.1-.03.23-.15.4-.33.5-.57.05.14.05.38 0 .55-.03.1-.01.38.05.46-.01 0-.01 0-.02.01h-.1c-.3-.17-.63-.23-.97-.27-.42-.04-.83-.14-1.18-.36-.44-.27-.67-.65-.7-1.14 0-.02 0-.03-.01-.07-.4.7-.27 1.28.35 1.75z" class="I"/><path d="M44.817 26.96c0 .45.38.8.86.8.47 0 .85-.36.85-.8s-.38-.8-.85-.8c-.48 0-.86.36-.86.8z" fill="url(#S)"/><path d="M45.097 11.68c.02 0 .04 0 .06-.01l.2-.12c.03-.02.05-.05.05-.08v-.24c0-.03-.02-.06-.05-.08l-.2-.12c-.02-.01-.04-.01-.06-.01s-.03 0-.05.01l-.2.12c-.03.02-.05.05-.05.08v.24c0 .03.02.06.05.08l.2.12a.09.09 0 0 0 .05.01zm3.55 28.8c.16.1.4.05.48-.1a2.1 2.1 0 0 0-.02-2.06c-.2-.37-.82-.07-.62.3.25.44.3.98.05 1.42-.1.15-.05.34.1.44z"/><path d="M11.418 42.36c-.22-5.8 3.6-3.9 5.3-6.36a2.18 2.18 0 0 0 .28-.46c-1.9.98-7.26.33-5.6 6.82z" class="B F"/><path d="M8.498 31.05c5.25-4.23 15.62-3.77 16.38-3.7-4.35 2.9-17.4.18-17.87 9-.85-2.5.24-4.3 1.5-5.3z" class="B C"/><g class="F"><path d="M16.897 35.78v2.2c0 .9-1.22.4-1.7-.83 1.17-.43 1.7-1.36 1.7-1.36z" class="B"/><path d="M16.248 36.2c.88-1.45-.02-2.7-.16-2.76.5-.03 1.46-.9 1.7-1.2.35-.45.37-1.12.4-1.66.7-.03 1.2-.44 1.86-.58-.56.48-1.3 1.05-1.63 1.7-.3.57-.55 1.24-.74 1.85l-.42 1.52c-.07.38-.32.9-.27 1.28 0 0-.1 3.37.63 5.04-1.37-.44-2.1-1.48-2.34-1.9-.28-.46-.8-1.6-.15-2.32.42-.15.9-.58 1.13-.98z" class="B"/></g><path d="M3.408 40.58c2.76 3.55 6.45 5.84 11.04 6.83a21.3 21.3 0 0 0 4.65.42l19.24-.01c.6 0 1.22-.04 1.8-.23.57-.2 1.02-.52 1.27-1.06.35-.77.05-1.74-.72-2.26-.56-.4-1.2-.5-1.88-.47-.2.01-.37.04-.55.05-.04.01-.1.02-.12.01-.06-.01-.12-.04-.18-.06.04-.05.06-.1.1-.13a4 4 0 0 0 1.42-2.08 2.91 2.91 0 0 0 .08-.93l-.01-.08c-.01-.16.05-.2.22-.22l1.5-.07c.24-.02.48-.07.75-.1-.03.04-.06.1-.1.1-.38.16-.67.47-.8.85-.15.45-.26.9-.24 1.4.04.78.36 1.44.88 2.03.47.53 1.05.93 1.7 1.23.1.04.1.07.08.16a1.1 1.1 0 0 0 .02.76c.06.16.17.27.32.35.34.18.75.2 1.12.06l.03.15c.1.4.37.54.78.77h.28c.01 0 .02-.03.03-.03.7-.1 1-.72.92-1.3a2.71 2.71 0 0 0-.1-.43c.32-.08.65-.14.96-.24 1.46-.48 2.42-1.4 2.83-2.8.16-.56.06-1.06-.4-1.48-.03-.02-.03-.1-.03-.13.1-.53.23-1.06.27-1.6.1-1.27-.34-2.38-1.28-3.3-.05-.06-.06-.1-.04-.17.06-.28.13-.57.17-.85.07-.58-.16-1.06-.57-1.48-.04-.04-.08-.08-.1-.12-.1-.32-.35-.54-.67-.7-.63-.3-1.3-.36-2-.25-.45.07-.86.25-1.27.43-.2.08-.35.12-.52-.02-.03-.02-.07-.03-.1-.05-.04-.04-.12-.1-.1-.13.01-.05.07-.1.13-.13.32-.12.65-.2 1-.2.26 0 .52 0 .77-.03a6.1 6.1 0 0 0 2.28-.76.47.47 0 0 1 .15-.06 2.1 2.1 0 0 0 1.8-1.65c.02-.1.02-.18.07-.25.38-.56.4-1.15.2-1.76-.14-.4-.34-.76-.5-1.14a2.1 2.1 0 0 1-.2-.63 9.2 9.2 0 0 0-.32-1.79c-.37-1.24-1.03-2.32-2.08-3.17-1.07-.85-2.33-1.3-3.7-1.44-.1 0-.2-.07-.24-.16-.3-.65-.8-1.1-1.52-1.33-.2-.06-.38-.08-.55 0-.25.1-.5.2-.73.36-.58.38-1.05.88-1.43 1.44-.03.05-.07.1-.1.1-.06.02-.15.03-.2 0-.03-.02-.04-.12-.03-.17.02-.06.07-.12.1-.17a10.8 10.8 0 0 0 1.97-4.55c.01-.06.04-.1.1-.15l.76-.7a2.8 2.8 0 0 0 .77-1.37 2.7 2.7 0 0 0 .06-.41c0-.04-.04-.08-.07-.13-.04.03-.1.04-.14.08-.06.1-.1.2-.17.28-.04.06-.1.1-.15.16-.01-.03-.01-.05 0-.07a7.5 7.5 0 0 0 .54-1.97c.026-.189.043-.379.05-.57 0-.14-.1-.22-.2-.2-.05.02-.1.07-.13.1a6.5 6.5 0 0 1-1.35.9l-.02-.02-.03-.2c-.139-.786-.343-1.558-.61-2.31-.2-.58-.3-1.17-.2-1.78.07-.36.2-.7.53-.92.03-.02.05-.04.07-.08-.03-.01-.06-.03-.08-.04-.48-.1-.97-.04-1.24.47-.03.06-.07.1-.12.2-.06-.12-.12-.2-.14-.27a3.56 3.56 0 0 1-.08-1.22 3.9 3.9 0 0 1 .48-1.43c.06-.1.12-.24.16-.36.07-.23-.07-.4-.32-.4a1.15 1.15 0 0 0-.37.06 2.6 2.6 0 0 0-1.41 1.15c-.02.05-.05.1-.08.15-.25-.23-.47-.45-.6-.75-.08-.2-.18-.38-.28-.56-.07-.13-.13-.13-.22-.01-.02.03-.05.06-.07.1-.07.08-.13.08-.18-.01-.05-.07-.1-.16-.12-.24-.16-.4-.43-.76-.8-1.03-.03-.01-.05-.03-.1-.06l.05.33.04.32c-.03-.01-.04-.01-.05-.01-.03-.02-.07-.04-.1-.07-1.47-.95-3.08-1.6-4.82-2-.53-.1-1.1-.16-1.57-.44-.01 0-.02-.01-.03-.01-.1-.04-.17-.02-.24.05-.05.04-.13.06-.2.06-.2 0-.42-.05-.63-.06-.195-.022-.389-.055-.58-.1-.33-.08-.64-.37-.95-.37h-.23c-.07 0-.16.2-.22.27-.1.12-.23.26-.4.27-1.081.059-2.156.212-3.21.46a13.2 13.2 0 0 0-4.46 1.86c-1 .67-1.84 1.46-2.44 2.46-.12.2-.22.42-.32.63-.07.17-.1.35-.03.52.05.14.17.22.32.2.9-.13 1.63.17 2.32.64.68.47 1.2 1.06 1.5 1.8.43 1.1.2 2.1-.63 2.97-.08.1-.18.17-.28.27l-.1-.38c-.2-.6-.45-1.16-.9-1.62-.26-.28-.37.05-.3.54.14 1.04-.2 1.94-.98 2.7a.42.42 0 0 1-.2.1l-2.46.8c-1.45.5-2.86 1.12-4.2 1.87l-.06.03c-.13-.08-.18-.2-.17-.32 0-.17.03-.34.05-.5.01-.02.01-.03.02-.05.04-.3-.1-.4-.38-.27-.15.07-.28.18-.4.3-.34.38-.55.83-.75 1.28l-.3.72c-.04.1-.1.18-.18.24a20.1 20.1 0 0 0-3.14 3.04 16.8 16.8 0 0 0-1.99 3.12c-.01.03-.03.06-.04.1 0 .01-.01.01-.03.02-.18-.96-.2-1.94-.1-2.9l-.25.87c-.3 1.18-.38 2.37-.3 3.58.01.06-.01.13-.03.2-.386 1.12-.642 2.281-.76 3.46a15.4 15.4 0 0 0 3.32 11.3zM2.348 27.9c.8 1.65 1.82 3.18 2.92 4.67a.55.55 0 0 1 .1.25l.1 1.43c.03.28.08.56.12.83a14.5 14.5 0 0 1-4.3-10.69c.035.305.082.608.14.91.2.9.53 1.76.94 2.6zm10.8-12.16c-.01.02-.01.03-.01.03a.36.36 0 0 0-.07.1 17.3 17.3 0 0 0-2.33 4.06c-.4 1.04-.7 2.1-.83 3.2a10.1 10.1 0 0 0 0 2.33c0 .03 0 .1-.02.1l-.58.37c-.01-.04-.02-.07-.03-.1-.3-1.27-.47-2.56-.4-3.87.05-.84.2-1.66.54-2.44.01-.02.02-.05.02-.07-.103.138-.193.286-.27.44a8.8 8.8 0 0 0-.92 3.82c-.03 1.195.081 2.39.33 3.56-.2.07-.45.03-.8-.13-.01.04-.01.1-.03.12a8.28 8.28 0 0 0-1.37 1.9l-.03.06c-.27-.3-.5-.58-.65-.94-.04.15-.07.3-.08.44-.03.48.08.94.24 1.4.04.12.03.22-.04.33-.23-.2-.3-.48-.42-.75a.63.63 0 0 0-.14.4c-.03.38.07.74.23 1.1.12.27-.04.5-.05.77a1.1 1.1 0 0 1-.12-.16c-.4-.54-.82-1.08-1.2-1.65-.87-1.36-1.57-2.78-2.09-4.28a.34.34 0 0 1 0-.2 16 16 0 0 1 3.84-5.75c.02-.02.05-.03.08-.06v.08c-.07.55-.16 1.1-.2 1.66-.1.97-.07 1.94.13 2.9a4.2 4.2 0 0 0 .8 1.79c.3.36.65.65 1.12.82-.12-.1-.24-.2-.33-.3a3.4 3.4 0 0 1-.62-1.05c-.3-.8-.36-1.64-.37-2.48a17.2 17.2 0 0 1 .2-2.49c.117-.887.305-1.763.56-2.62.165-.566.411-1.105.73-1.6.04-.06.12-.1.2-.17.04.07.1.14.1.22.04.26.12.5.01.77a12.5 12.5 0 0 0-.73 3.3c-.03.24-.03.47-.05.7.07-.2.1-.42.15-.64a6.3 6.3 0 0 1 2.17-3.63 1.62 1.62 0 0 1 .37-.23c.83-.4 1.7-.75 2.58-1.05l.4-.13zm25.7-10.96c0 .08-.03.16-.06.24a6.7 6.7 0 0 0-.37 2.73c.01.17.02.34-.01.5-.2.97-.74 1.8-1.26 2.64-.02-.04-.02-.04-.02-.05-.06-1.42-.02-2.84.28-4.24.1-.5.27-1 .56-1.46a1.58 1.58 0 0 1 .57-.55c.08-.04.16-.07.22 0a.42.42 0 0 1 .1.2zm.63 7.55a6.29 6.29 0 0 1-.76.44c-.92.43-1.9.74-2.88 1.08-.2.06-.37.16-.54.26-.34.2-.6.5-.8.8l-.3.45c.01-.05.02-.1.04-.14.1-.37.24-.73.33-1.1a4.44 4.44 0 0 1 .64-1.44c.17-.24.36-.47.52-.72.1-.152.187-.313.26-.48.04-.1.04-.22.06-.33-.02-.01-.04-.02-.05-.03l-.16.13-.53.58c-.04.04-.13.08-.17.06-.05-.01-.1-.1-.1-.15.03-.2.04-.42.1-.62.1-.27.25-.52.36-.8.05-.13.1-.27.1-.4.01-.07-.06-.14-.1-.2-.06.04-.12.07-.17.12-.1.08-.16.2-.25.27-.1.1-.17.07-.22-.04-.04-.07-.08-.16-.07-.23.03-.2.1-.37.14-.56l.15-.5c.03-.12 0-.23-.13-.32-.04.05-.08.1-.1.14-.05.1-.1.2-.14.3-.1.23-.2.47-.33.7-.1.2-.22.18-.34-.01-.24-.38-.47-.76-.73-1.1-.15-.2-.23-.4-.25-.62l-.08-.92c-.02-.1-.05-.23-.18-.34l-.08.34c-.03.16-.05.3-.1.47-.03.1-.12.1-.18.02-.05-.1-.1-.2-.1-.3-.02-.2 0-.37-.01-.56 0-.08-.04-.17-.07-.25-.02-.03-.06-.06-.1-.1-.02.04-.05.07-.06.1-.02.04-.02.1-.03.14-.02.14-.03.28-.07.4-.03.15-.13.17-.23.05-.1-.1-.16-.23-.2-.36-.07-.2-.1-.4-.16-.6a.69.69 0 0 0-.17-.27c-.02-.02-.1-.04-.13-.03-.03 0-.06.07-.06.1 0 .16.01.3.01.47v.24c-.04-.01-.05-.01-.06-.02-.02-.01-.04-.03-.06-.04-.17-.17-.28-.37-.32-.6a2.91 2.91 0 0 0-.04-.31c-.03-.12-.1-.16-.23-.15-.14.02-.23.1-.24.27-.01.1 0 .2 0 .33l-.43-.2a14.2 14.2 0 0 0-4.53-1.25c-1.02-.1-2.05-.12-3.06.08-.62.1-1.2.3-1.7.66a1.06 1.06 0 0 0-.2.17c.56-.3.9-.43 1.4-.52.93-.17 1.85-.15 2.78-.02 1.62.22 3.18.7 4.62 1.44a9.8 9.8 0 0 1 2.96 2.21l.17.2c-1.67-.75-3.57.66-5.47.03 2.6 1.26 4.14-.36 5.6.7.37.26.44.95-.42.83-.8-.1 1.23.27 1.6 2.25-.03.33-.07.66-.15 1a9.3 9.3 0 0 1-2.11 3.98 11.5 11.5 0 0 1-3.83 2.82c-.02 0-.05.01-.07.02v-.03l.07-.1c.7-.98 1.28-2 1.56-3.18a4.1 4.1 0 0 0-.05-2.38c-.3-.88-.9-1.55-1.7-2.1a9.8 9.8 0 0 0-2.91-1.26l-.7-.18c.03.03.03.03.04.03.04.02.08.04.13.05.721.256 1.406.602 2.04 1.03.9.62 1.56 1.4 1.86 2.44a5.1 5.1 0 0 1-.03 2.71c-.3 1.17-.87 2.23-1.56 3.24a1 1 0 0 1-.62.46c-.34.1-.67.22-1.04.34 1.04-1.04 1.07-2.5.87-3.37 0 .01-.01.02-.01.03-.03.7-.3 1.34-.7 1.9a6.9 6.9 0 0 1-2.43 2.01c-.081.03-.165.054-.25.07a3.58 3.58 0 0 0 .77-1.24c.15-.46.2-1.16.1-1.42a3.4 3.4 0 0 1-.67 1.24 9.03 9.03 0 0 1-2.12 1.86c-.542.349-1.123.634-1.73.85-1.1.4-2.22.63-3.34.9l-2.96.72c-.54.14-1.06.35-1.5.67a3.9 3.9 0 0 1-.24-1.21c-.06-5.5 4.6-8.42 6.03-9.96a4.6 4.6 0 0 0 .86-1.54l.23-.7c.02.02.03.03.03.04.4.7.65 1.44.46 2.27-.3 1.26-.84 2.4-1.86 3.3-.02 0-.02.02-.05.06.05-.03.06-.03.08-.05.84-.45 1.6-.98 2.26-1.67 1.1-1.14 1.68-2.48 1.76-4 .04-.67-.06-1.33-.14-2a4.3 4.3 0 0 0-3.42-3.6c-.14-.03-.28-.07-.4-.14-.17-.08-.22-.23-.16-.4.03-.06.06-.13.1-.18a4.15 4.15 0 0 1 1.25-1.18c.27-.15.53-.3.78-.48 1.04-.7 2.15-1.23 3.4-1.54.5-.13 1.02-.25 1.55-.2.17.02.33.07.5.1.07.01.15-.03.22-.05-.04-.05-.08-.1-.13-.13a2.3 2.3 0 0 0-1.04-.24c-.53-.02-1.06.08-1.58.18-.05.01-.1.01-.16.01a3.9 3.9 0 0 1 1.44-.71c.86-.25 1.74-.3 2.64-.23.28.02.57.03.84.17.26.14.53.25.8.37.05.03.12.04.18.06l.03-.03c-.03-.07-.05-.14-.1-.2l-.3-.53c-.02-.03-.01-.08-.01-.12.04 0 .1-.02.12 0 .2.06.42.12.6.2a2.4 2.4 0 0 0 .88.19 13.01 13.01 0 0 1 1.24.12c.6.08 1.06.37 1.36.88a5.35 5.35 0 0 1 .22.35c.03.04.07.07.1.1.02-.01.03-.01.05-.02l-.3-.92a1.8 1.8 0 0 1 .9.55c.13.15.25.3.38.44.05.06.12.1.18.15l.06-.03-.08-.6c.01-.01.03-.01.04-.01l.58.33c.67.38 1.3.8 1.76 1.4.06.08.1.07.14-.03.04-.12.07-.25.12-.38.01-.03.07-.1.1-.08.04 0 .1.04.12.08a.74.74 0 0 1 .05.25c.01.18.01.35.03.52 0 .06.06.1.1.15.05-.03.1-.07.14-.12.07-.14.13-.3.2-.44.06-.13.1-.13.2-.02.12.15.25.28.48.26.22-.01.24 0 .32.2.14.3.25.63.4.94.06.15.16.3.24.43.02.03.04.08.03.1-.28.85-.35 1.72-.37 2.6l-.02 2.43c-.02.64-.13 1.26-.64 1.75a1.19 1.19 0 0 0 .2-.08 2.6 2.6 0 0 0 .82-.65 6.7 6.7 0 0 0 1.16-1.94l.74-1.65c.06-.15.17-.26.26-.4.02-.03.1-.06.12-.05.04.02.07.07.08.1.008.09.011.18.01.27-.03.46-.07.9.02 1.36.01.07.03.15.01.2a5.3 5.3 0 0 1-.82 1.75c-.02.02-.02.04-.05.08.3-.12.5-.3.64-.5.16-.2.3-.44.46-.67l.2.73a.72.72 0 0 1-.32.85zm.33 3.63c-.75.66-1.63 1.12-2.55 1.52-1.26.53-2.57.9-3.9 1.2l-1.47.3.57-.66c.02-.02.06-.03.1-.04a9.17 9.17 0 0 0 2.43-.58c1.8-.7 3.33-1.76 4.7-3.04.02-.01.03-.02.04-.04-.05.02-.1.04-.12.06-1.16.75-2.35 1.45-3.6 2.06-.8.4-1.62.74-2.5.95-.2.05-.4.1-.66.13l.06-.1c.28-.45.58-.9.82-1.36.15-.3.36-.5.63-.7 1-.7 2.1-1.26 3.2-1.77.01-.01.03-.01.06-.01-.42.63-.83 1.25-1.57 1.6.2-.03.38-.05.56-.1a4.3 4.3 0 0 0 1.48-.82l1.63-1.3a4.6 4.6 0 0 1 .92-.58c.34-.15.73-.23 1.1-.34.1-.03.2-.03.34-.06-.05.22-.07.4-.13.6-.42 1.2-1.14 2.24-2.12 3.1zm-6.8 9.3a4.3 4.3 0 0 1-.86.35c-.6.18-1.24.18-1.87.18h-1.33c-.1 0-.22.03-.33.05v.06c.1.03.2.07.3.1l.94.24c.06.01.1.05.17.07v.04c-.04.01-.08.03-.13.04-.62.12-1.24.26-1.87.34-1.07.14-2.13.32-3.16.6-.1.03-.18.04-.27.03l-3.14-.2a21.9 21.9 0 0 0-3.62.03c-1.36.13-2.7.44-3.97.9a21.4 21.4 0 0 0-5.08 2.73c-.03.02-.06.04-.08.06.05-.01.1-.03.13-.05 1.43-.8 2.9-1.5 4.47-2.07 1.329-.471 2.703-.807 4.1-1a25.91 25.91 0 0 1 3.06-.15h3.43c.01 0 .03.01.04.01l-.08.04c-1.016.364-1.983.851-2.88 1.45-.26.2-.55.33-.86.44l-.72.24c-1.25.36-2.54.54-3.83.76l-3.16.6a10.1 10.1 0 0 0-2.74.95c-1.47.8-2.34 1.96-2.57 3.53-.04.25-.06.5-.1.72a2.28 2.28 0 0 0-.17-.3 6.7 6.7 0 0 1-1.07-2.84 3.9 3.9 0 0 1 1.32-3.55c.05-.04.08-.1.1-.14.16-.3.3-.6.46-.88.5-.78 1.24-1.37 2.05-1.87 1.08-.66 2.25-1.13 3.47-1.5 1.924-.583 3.885-1.037 5.87-1.36l4.85-.87a14.8 14.8 0 0 0 3.64-1.08 14.3 14.3 0 0 0 3.94-2.56c.04-.04.1-.06.17-.06.761-.018 1.52-.092 2.27-.22a15.8 15.8 0 0 0 5.78-2.27c.03-.01.06-.03.1-.05a.68.68 0 0 1-.03.12c-.15.62-.34 1.22-.6 1.8-1.22 2.86-3.25 5.05-6.13 6.55zm16.88 14.95a11 11 0 0 1-.27 1.39c-.17.7-.63 1.18-1.38 1.4-.34.1-.7.14-1.04.14a8.6 8.6 0 0 1-2.02-.26 5.2 5.2 0 0 1-1.58-.6c-.45-.28-.8-.65-.93-1.16-.08-.32-.06-.64 0-.96.01-.1.1-.2.2-.23 1.1-.4 1.97-1.06 2.5-2.07.06-.13.18-.2.32-.22.53-.05 1.04-.03 1.52.2.3.16.6.14.92 0a2.5 2.5 0 0 0 .35-.21c.145-.103.285-.213.42-.33.01.02.02.04.04.05a3.58 3.58 0 0 1 .95 2.87zm-8.1 2.1c.1.05.16.12.24.18.65.57 1.4 1 2.24 1.28a8.2 8.2 0 0 0 2.3.42c.6.03 1.17.02 1.74-.12.4-.1.76-.25 1.14-.37.08-.02.2-.04.26 0 .1.07.03.17-.01.26-.28.5-.63.92-1.12 1.24-.87.57-1.84.7-2.87.58a.76.76 0 0 0-.45.08c-.07.04-.1.1-.16.17l.03.03c.04 0 .07-.01.1-.01.2-.01.38-.03.57-.01.27.03.5.2.62.43s.08.5-.08.72c-.12.15-.27.26-.48.24-.22-.03-.33-.18-.4-.36-.01-.04-.02-.1-.03-.14-.02-.18-.03-.2-.23-.2-.2.01-.37.04-.56.06-.23.03-.37-.05-.45-.25a.6.6 0 0 1 .05-.49c.1-.16.22-.3.32-.46-.28-.1-.58-.2-.87-.35-1.1-.53-1.83-1.33-2.1-2.46a1.04 1.04 0 0 1-.03-.35c0-.16.1-.2.24-.12zm.57-1.42c.08.24.14.48.25.7.25.5.7.84 1.23 1.06a8.2 8.2 0 0 0 3.94.67c.83-.06 1.52-.4 1.9-1.13h.02c.24.1.4.3.43.55a.49.49 0 0 1-.3.53c-.28.13-.56.28-.86.36a7.6 7.6 0 0 1-3.79.06 6.8 6.8 0 0 1-2.63-1.19c-.3-.23-.58-.48-.75-.8a.67.67 0 0 1-.08-.27c.02-.28.35-.53.62-.53zM2.548 34.9c-1-1.66-1.54-3.4-1.55-3.68a16.39 16.39 0 0 1 .2-2.53l.1-.58c.04.04.05.07.07.1.15.47.28.94.45 1.4.9 2.42 2.28 4.58 4 6.57.056.078.103.162.14.25.37 1.07.9 2.03 1.6 2.9-.77-.3-1.64-.4-2.68-1.53 1.28 2.3 4.3 3.2 4.3 3.2 1.68 1.4 3.63 2.34 5.8 2.9.18.05.36.08.53.12-.04-.03-.08-.05-.12-.06-1.6-.54-3.1-1.3-4.44-2.28a10.8 10.8 0 0 1-3.7-4.63.83.83 0 0 1-.03-.6c.05-.14.08-.3.13-.44.36-1.08.9-2.06 1.8-2.85.85-.75 1.88-1.2 3-1.52 1.33-.36 2.7-.5 4.1-.67l2.38-.33c.2-.03.42-.08.65-.12-.02.03-.02.04-.03.05a9.55 9.55 0 0 0-1.55 2.15c-.02.05-.08.1-.13.1-.37.1-.73.24-1.1.3-.56.1-1.13.14-1.7.25-3 .55-3.9 2.05-3.9 2.04.9-.9 2.36-1.16 2.75-1.28.9-.3 1.82-.37 2.76-.37l.84.03a9.9 9.9 0 0 0 .41 7.56.32.32 0 0 0-.03-.14c-.44-1.6-.62-3.2-.37-4.83a8.4 8.4 0 0 1 2.78-5.08 13.5 13.5 0 0 1 3.97-2.41c1.4-.57 2.84-.93 4.3-1.26 1.1-.25 2.22-.5 3.3-.8 1.46-.4 2.78-1.06 3.9-2.03a3.8 3.8 0 0 0 .5-.48c.95-1.15 2.1-2.05 3.53-2.64.1-.28.25-.58.5-.9a5.8 5.8 0 0 1 1.25-1.11c.13-.1.3-.15.47-.18s.28.05.34.2c.02.05.03.1.04.14a.92.92 0 0 1 .28.14c.064.045.124.095.18.15.27.25.45.54.6.86.02.06.08.1.15.1.18.02.35.05.53.08a6.2 6.2 0 0 1 5.25 5.44c.04.26.03.53.12.77.1.3.28.6.43.9.13.27.27.53.38.8.12.27.13.57.04.85-.03.1-.1.13-.18.08-.1-.07-.22-.16-.33-.23l-.4-.3c-.12-.06-.25-.05-.36.07.03.02.05.03.07.05l.87.73c.03.03.06.1.05.13-.02.4-.16.74-.45 1-.38.36-.82.55-1.37.43-.01.2-.03.22-.15.28a5.1 5.1 0 0 1-2.45.6c-.65-.01-1.23.2-1.78.48-.17.1-.36.17-.55.2-.6.15-1.2.2-1.83.2-.05 0-.1 0-.15.01.02.02.06.04.1.05.493.1.998.13 1.5.09.16-.01.35-.05.5.01.4.15.82.34 1.22.54.1.05.2.08.32.04l.76-.28a3.2 3.2 0 0 1 1.65-.28 2.4 2.4 0 0 1 .9.27c.18.1.32.23.34.45 0 .03.03.06.06.08.07.07.15.12.23.2.2.18.32.44.28.7-.02.23-.1.27-.3.17-.1-.05-.22-.1-.33-.01.14.08.28.15.4.24.2.13.27.3.26.53-.02.6-.8 1.15-1.45 1-.22-.04-.4-.13-.53-.32-.01-.02-.06-.05-.1-.05-.17.01-.35.01-.5.04-.3.07-.6.14-.92.08-.149-.023-.296-.056-.44-.1a2.8 2.8 0 0 1-.57 1.02c-.6.7-1.38 1.16-2.28 1.44-1.17.36-2.38.4-3.58.24-1.75-.24-2.98-1.12-3.65-2.66-.17-.38-.25-.8-.38-1.2a7.9 7.9 0 0 0-.82-1.83c-.57-.93-1.32-1.7-2.34-2.2-1.15-.57-2.38-.7-3.64-.48-.25.04-.48.1-.75.16.46.02.9.03 1.3.07 1.18.1 2.28.44 3.28 1.04 1.2.7 2.1 1.63 2.46 2.95a10.2 10.2 0 0 0 .83 2.03c.23.44.48.86.84 1.22.6.6 1.35.93 2.17 1.15l.76.2c.12.04.2.12.25.24.13.34.17.68.1 1.03-.12.56-.4 1.03-.8 1.45-.348.349-.741.648-1.17.89a7.9 7.9 0 0 0-.59.42c-.16.13-.26.3-.25.5.02.36.04.42.42.3.07-.02.12-.04.18-.06l.94-.38c.6-.24 1.23-.32 1.87-.18.7.16 1.22.55 1.44 1.22.05.14.06.28-.02.4-.04.06-.13.12-.2.12-.06 0-.14-.07-.2-.12-.03-.04-.03-.1-.05-.15-.07-.26-.2-.5-.46-.6-.05-.03-.1-.03-.17-.05.36.35.56.75.53 1.23-.02.36-.32.6-.7.58-.12-.01-.2-.06-.2-.16-.02-.13-.01-.26-.01-.38-.01-.15 0-.3-.02-.46-.04-.24-.2-.4-.44-.47-.13-.04-.24-.02-.35.04.16.03.3.07.38.2s.16.27.2.4c.08.3.04.6-.27.8-.13.08-.32.12-.5.14-.36.05-.7-.05-1.05-.12a2.8 2.8 0 0 0-.64-.08c-.2 0-.4.04-.6.07-1.2.2-2.44.12-3.67.1l-14.2-.01a17.7 17.7 0 0 1-4.04-.47c-5.03-1.24-8.8-3.8-11.28-8.06a14.9 14.9 0 0 1-1.94-6.02c-.03-.25 1.47 2.37 1.46 2.1z" class="I"/><path d="M41.918 23.78c-.42-.84-.42-1.2.04-2 .36-.6 1.3-.07 1.17-.74-.06-.6-.7-1.23-.83-1.37-.15-.16-.23-.33-.46-.28a1.44 1.44 0 0 0-.55.24 7.2 7.2 0 0 0-1.53 1.38c-.78.97-.46 1.56.45 2.33.4.33 1.76.52 1.7.43z" class="E"/><path d="M41.078 20.58c.22-.22.57-.45.93-.67.2-.12-.38 1.35-.55 1.74-.55 1.3.18 2.08-.02 1.98-.44-.2-1.06-.97-1.1-1.44-.04-.5.38-1.23.75-1.6z" class="B C"/><path d="M41.748 23.72c-.42-.84-.43-1.2.04-2 .35-.6.5-1.2.4-1.88-.02-.07-.03-.15-.06-.22-.07-.2-.2-.3-.43-.26-.2.04-.4.1-.58.2-.57.4-1.1.85-1.53 1.38-.6.75-.53 1.25-.08 1.82.13.16.2.15.38.18.2.04.26-.24.2-.35-.16-.26-.26-.53-.28-.73-.05-.5.25-1.06.62-1.44.35-.35 1.04-.9 1.52-1.03.1.4-.13 1.23-.3 1.63-.2.48-.76 1.37-.6 1.95 0 0 .2.53.4.67.2.13.3.07.3.07z" class="I"/><path d="M16.087 33.44c-.06 0-.1-.01-.16-.03.05 0 .1.01.16.03z" class="B D"/><path d="M42.098 40.48c.5-.7 1.05-.93 1.68-1.5.6-.52 1.05-1.15 1.64-1.67.47.1 1 .02 1.47.04.34.8 2 .04 2.15-.47l.22.3c.48.88-1.24.94-2.2.85-.7-.07-3.64.66-3.55 4.23-.33.47-1.1.01-1.1.63 0 .64.01 1.76.6 2.17-.17.55-.76-.03-.92-.26a6.2 6.2 0 0 1-.99-1.97c-.2-1 .48-1.6 1.02-2.37z" class="B F"/><path d="M55.747 29.14h12.76v2.87h-9.24v5.07h8.72v2.77h-8.72v7.8h-3.52zm15.9-1.26h3.36v19.76h-3.36zm7 2.95a1.7 1.7 0 0 1 .6-1.3c.4-.37.9-.57 1.53-.57a2.3 2.3 0 0 1 1.55.54 1.7 1.7 0 0 1 .63 1.34 1.7 1.7 0 0 1-.63 1.35 2.3 2.3 0 0 1-1.55.54c-.62 0-1.13-.2-1.53-.57s-.6-.8-.6-1.3zm.48 4.26h3.35v12.55h-3.35zm7.43.01h3.18v2.02h.06c.3-.63.8-1.18 1.55-1.66s1.6-.72 2.6-.72a5.3 5.3 0 0 1 2.25.43 4.5 4.5 0 0 1 1.54 1.14 4.5 4.5 0 0 1 .88 1.62 6.58 6.58 0 0 1 .28 1.88v7.85h-3.35v-6.95a8.9 8.9 0 0 0-.08-1.15c-.05-.38-.17-.75-.36-1.08a2.36 2.36 0 0 0-.77-.8c-.33-.2-.76-.3-1.3-.3s-1 .1-1.4.3a2.9 2.9 0 0 0-.96.78 3.76 3.76 0 0 0-.58 1.08 4 4 0 0 0-.19 1.24v6.9h-3.36V35.12zm16.3-7.22h3.35v12.5h.1l5.08-5.28h4.3l-5.8 5.67 6.17 6.88h-4.44l-5.3-6.43h-.1v6.43h-3.35V27.88z" fill="#000"/></g></symbol></svg>