<svg xmlns="http://www.w3.org/2000/svg" xmlns:xlink="http://www.w3.org/1999/xlink" viewBox="0 0 63 65" fill="#fff" fill-rule="evenodd" stroke="#000" stroke-linecap="round" stroke-linejoin="round"><use xlink:href="#A" x="1" y="1"/><symbol id="A" overflow="visible"><path d="M0 43.43c0-.96.134-1.77.4-2.426a4.34 4.34 0 0 1 1.166-1.626 4.62 4.62 0 0 1 1.72-.89c.656-.184 1.36-.276 2.12-.276a7.24 7.24 0 0 1 2.026.276c.654.184 1.228.48 1.72.89s.88.952 1.166 1.626c.286.656.43 1.464.43 2.426 0 .92-.144 1.708-.43 2.364a4.54 4.54 0 0 1-1.166 1.626 4.35 4.35 0 0 1-1.72.92 6.58 6.58 0 0 1-2.026.306c-.76 0-1.464-.1-2.12-.306a4.38 4.38 0 0 1-1.72-.92c-.492-.43-.88-.972-1.166-1.626-.266-.654-.4-1.44-.4-2.364m17.312 19.492c-1 0-1.996-.072-3.04-.214s-1.914-.328-2.608-.552V54.79c.634.204 1.228.348 1.8.43.618.107 1.245.159 1.872.154a4.11 4.11 0 0 0 1.44-.246 2.32 2.32 0 0 0 1.2-.828c.348-.388.624-.92.828-1.596.204-.654.306-1.504.306-2.548v-36.65h9.36v38.03c0 1.576-.204 3.048-.614 4.4a8.86 8.86 0 0 1-1.934 3.6c-.88 1.044-2.026 1.86-3.44 2.456s-3.13.89-5.156.89m1.4-58.288c0-.88.134-1.606.4-2.2S19.75 1.33 20.2.982a4.13 4.13 0 0 1 1.626-.768C22.46.07 23.126 0 23.822 0a8.58 8.58 0 0 1 1.964.214 3.88 3.88 0 0 1 1.596.768 3.48 3.48 0 0 1 1.104 1.412c.286.574.43 1.3.43 2.2 0 .86-.144 1.586-.43 2.2-.266.594-.634 1.074-1.104 1.44a4.44 4.44 0 0 1-1.596.768 8.58 8.58 0 0 1-1.964.216c-.696 0-1.36-.07-1.996-.216a4.78 4.78 0 0 1-1.626-.768c-.45-.368-.808-.85-1.074-1.44s-.4-1.32-.4-2.2m42.24 33.036c0 1.8-.328 3.376-1 4.726a9.08 9.08 0 0 1-2.794 3.376c-1.208.9-2.67 1.576-4.39 2.026s-3.64.676-5.77.676c-1.126 0-2.17-.04-3.13-.12-.917-.056-1.829-.169-2.732-.338a23.15 23.15 0 0 1-2.486-.614c-.826-.256-1.636-.564-2.424-.92V38.71c.86.43 1.76.8 2.7 1.166l2.854.92 2.732.584a15.82 15.82 0 0 0 2.486.214c.84 0 1.556-.07 2.148-.214a4.99 4.99 0 0 0 1.44-.644c.388-.286.666-.614.828-1a2.84 2.84 0 0 0 .276-1.228c0-.43-.072-.808-.214-1.136-.12-.348-.4-.706-.89-1.074-.47-.388-1.166-.8-2.088-1.288l-3.652-1.8-3.9-1.996c-1.084-.676-1.984-1.4-2.7-2.24a8.34 8.34 0 0 1-1.566-2.794c-.348-1.064-.52-2.32-.52-3.776 0-1.596.306-2.988.92-4.174a8.2 8.2 0 0 1 2.608-3.008c1.126-.8 2.476-1.392 4.052-1.8 1.596-.41 3.366-.614 5.31-.614 2.046 0 3.99.236 5.832.706s3.734 1.176 5.68 2.12l-2.824 6.63c-1.556-.736-3.04-1.34-4.45-1.81a13.34 13.34 0 0 0-4.236-.706c-1.268 0-2.19.226-2.76.676-.552.45-.828 1.064-.828 1.84 0 .41.072.8.214 1.106s.43.634.86 1c.43.328 1.034.696 1.81 1.104l3.04 1.44 3.928 1.9a13.36 13.36 0 0 1 3.008 2.118 8.26 8.26 0 0 1 1.934 2.794c.45 1.064.676 2.354.676 3.868" stroke="none" fill="#558" fill-rule="nonzero"/></symbol></svg>