<svg xmlns="http://www.w3.org/2000/svg" xmlns:xlink="http://www.w3.org/1999/xlink" viewBox="0 0 66 62" fill="#fff" fill-rule="evenodd" stroke="#000" stroke-linecap="round" stroke-linejoin="round"><style><![CDATA[.B{opacity:.2}.C{fill:#2b2b2b}.D{fill:#8b4fba}.E{fill:#e65270}.F{fill:#430a1d}.G{fill:#e65271}.H{fill:#f6e8a0}.I{fill:#0d0d0d}]]></style><use xlink:href="#U" x=".5" y=".5"/><defs><linearGradient id="A" x1="166.02%" y1="-245.18%" x2="0.62%" y2="188.85%"><stop offset="38.4%" stop-color="#faa100"/><stop offset="65.8%" stop-color="#bf73f2"/><stop offset="66.5%" stop-color="#c370e6"/><stop offset="68.5%" stop-color="#cc68c7"/><stop offset="70.8%" stop-color="#d461ab"/><stop offset="73.4%" stop-color="#db5b95"/><stop offset="76.4%" stop-color="#e05784"/><stop offset="80.2%" stop-color="#e35479"/><stop offset="85.4%" stop-color="#e55272"/><stop offset="100%" stop-color="#e65270"/></linearGradient><linearGradient id="B" x1="125.15%" y1="-322.19%" x2="8.10%" y2="219.16%"><stop offset="38.4%" stop-color="#faa100"/><stop offset="65.8%" stop-color="#bf73f2"/><stop offset="66.5%" stop-color="#c370e6"/><stop offset="68.5%" stop-color="#cc68c7"/><stop offset="70.8%" stop-color="#d461ab"/><stop offset="73.4%" stop-color="#db5b95"/><stop offset="76.4%" stop-color="#e05784"/><stop offset="80.2%" stop-color="#e35479"/><stop offset="85.4%" stop-color="#e55272"/><stop offset="100%" stop-color="#e65270"/></linearGradient><linearGradient id="C" x1="51.83%" y1="-25.96%" x2="48.78%" y2="133.06%"><stop offset="0%" stop-color="#faa7b5"/><stop offset="38.4%" stop-color="#faa100"/><stop offset="73.2%" stop-color="#bf73f2"/></linearGradient><linearGradient id="D" x1="-51.92%" y1="-74.14%" x2="59.94%" y2="47.14%"><stop offset="0%" stop-color="#f6e8a0"/><stop offset="100%" stop-color="#e65271"/></linearGradient><linearGradient id="E" x1="-32.87%" y1="-15.59%" x2="69.34%" y2="93.53%"><stop offset="0%" stop-color="#f6e8a0"/><stop offset="100%" stop-color="#e65271"/></linearGradient><linearGradient id="F" x1="60.90%" y1="-44.24%" x2="38.74%" y2="102.87%"><stop offset="0%" stop-color="#f6e8a0"/><stop offset="100%" stop-color="#e65271"/></linearGradient><linearGradient id="G" x1="78.46%" y1="124.00%" x2="10.11%" y2="-99.49%"><stop offset="0%" stop-color="#e65271"/><stop offset="38.4%" stop-color="#faa100"/></linearGradient><linearGradient id="H" x1="-21.67%" y1="-38.43%" x2="118.68%" y2="98.14%"><stop offset="0%" stop-color="#f6e8a0"/><stop offset="100%" stop-color="#e65271"/></linearGradient><linearGradient id="I" x1="281.00%" y1="11.44%" x2="35.20%" y2="52.30%"><stop offset="0%" stop-color="#faa7b5"/><stop offset="38.4%" stop-color="#faa100"/><stop offset="73.2%" stop-color="#bf73f2"/></linearGradient><linearGradient id="J" x1="247.21%" y1="-128.81%" x2="-42.87%" y2="124.63%"><stop offset="0%" stop-color="#faa7b5"/><stop offset="38.4%" stop-color="#faa100"/><stop offset="73.2%" stop-color="#bf73f2"/></linearGradient><radialGradient id="K" cx="66%" cy="79%" r="71%" fx="66%" fy="79%"><stop offset=".9%" stop-color="#fff"/><stop offset="100%" stop-color="#fff" stop-opacity="0"/></radialGradient><radialGradient id="L" cx="152%" cy="-9%" r="123%" fx="152%" fy="-9%"><stop offset=".9%" stop-color="#fff"/><stop offset="100%" stop-color="#fff" stop-opacity="0"/></radialGradient><radialGradient id="M" cx="39%" cy="30%" r="79%" fx="39%" fy="30%"><stop offset=".9%" stop-color="#fff"/><stop offset="100%" stop-color="#fff" stop-opacity="0"/></radialGradient><linearGradient id="N" x1="91.34%" y1="-51.19%" x2="15.32%" y2="148.94%"><stop offset=".4%" stop-color="#faa7b5"/><stop offset="38.4%" stop-color="#faa100"/></linearGradient><linearGradient id="O" x1="88.74%" y1="-131.52%" x2="20.87%" y2="148.07%"><stop offset="0%" stop-color="#faa7b5"/><stop offset="38.4%" stop-color="#faa100"/><stop offset="73.2%" stop-color="#bf73f2"/></linearGradient><linearGradient id="P" x1="113.95%" y1="-164.45%" x2="35.54%" y2="103.74%"><stop offset="0%" stop-color="#faa7b5"/><stop offset="38.4%" stop-color="#faa100"/><stop offset="73.2%" stop-color="#bf73f2"/></linearGradient><linearGradient id="Q" x1="15.55%" y1="-98.47%" x2="62.92%" y2="111.70%"><stop offset="0%" stop-color="#faa7b5"/><stop offset="38.4%" stop-color="#faa100"/><stop offset="73.2%" stop-color="#bf73f2"/></linearGradient><linearGradient id="R" x1="66.10%" y1="-151.58%" x2="14.10%" y2="471.63%"><stop offset="0%" stop-color="#faa7b5"/><stop offset="38.4%" stop-color="#faa100"/><stop offset="73.2%" stop-color="#bf73f2"/></linearGradient><linearGradient id="S" x1="117.90%" y1="-62.00%" x2="-13.24%" y2="154.37%"><stop offset="0%" stop-color="#faa7b5"/><stop offset="38.4%" stop-color="#faa100"/><stop offset="73.2%" stop-color="#bf73f2"/></linearGradient><path id="T" d="M62.612 53.313c-.019.014-.025.017-.027.02-.488.943-1.355 1.354-2.403 1.432-1.732.139-3.391-.167-4.966-.847-.664-.288-1.232-.705-1.552-1.347-.138-.277-.206-.586-.309-.891-.344-.002-.753.318-.78.662-.009.112.041.238.095.343.217.423.567.743.948 1.033.98.744 2.102 1.213 3.318 1.49 1.598.358 3.195.375 4.776-.076.381-.107.729-.286 1.076-.459.269-.135.406-.367.366-.668-.029-.309-.238-.577-.542-.697z"/></defs><symbol id="U" overflow="visible"><g stroke="none" fill-rule="nonzero"><path d="M40.957 60.24l-2.573-.012-2.214.002-9.355-.002-1.427.003-1.428.002-.892-.002c-1.8-.01-3.52-.214-5.114-.606-6.344-1.561-11.148-5.101-14.279-10.52-1.501-2.598-2.353-5.503-2.534-8.634-.079-1.417-.003-2.838.225-4.241.027-.169.06-.339.093-.509l.073-.388.124.115c.065.061.086.124.101.172l.178.572c.127.397.246.807.393 1.201 1.078 2.895 2.717 5.606 5.008 8.294a1.07 1.07 0 0 1 .199.338c.764 2.23 2.15 4.226 4.012 5.781 1.833 1.544 4.032 2.7 6.543 3.442-1.611-.649-3.102-1.477-4.442-2.472-2.187-1.623-3.763-3.607-4.683-5.906-.092-.23-.169-.508-.044-.816.041-.105.07-.214.1-.322.02-.075.04-.15.065-.225.495-1.523 1.248-2.717 2.3-3.649.98-.869 2.228-1.503 3.816-1.943 1.483-.41 3.03-.595 4.527-.774l.641-.078 2.508-.344.495-.072c.19-.026.367-.064.556-.103l.461-.091-.12.194c-.01.017-.017.03-.03.045-.775.815-1.427 1.726-1.938 2.707-.047.086-.128.153-.225.186l-.33.102c-.349.11-.71.221-1.076.29a22.06 22.06 0 0 1-1.19.179l-.939.137c-1.049.175-1.86.492-2.474.976a4.75 4.75 0 0 1 .41-.068 3.33 3.33 0 0 0 .565-.111c.967-.316 2.027-.463 3.338-.463h.178c.236.004.473.011.709.023l.46.018-.034.107c-.941 2.891-.913 5.727.076 8.446-.414-1.844-.49-3.557-.233-5.212.392-2.529 1.577-4.711 3.524-6.481 1.313-1.193 2.96-2.195 5.035-3.062 1.801-.753 3.679-1.205 5.448-1.605l.334-.076c1.261-.285 2.565-.58 3.828-.929 1.895-.522 3.541-1.381 4.894-2.556.203-.176.432-.376.614-.597 1.292-1.575 2.798-2.692 4.603-3.417.052-.021.111-.073.149-.131.59-.907 1.299-1.575 2.166-2.043.194-.104.387-.157.573-.157.237 0 .474.086.706.251a2.24 2.24 0 0 1 .238.197c.304.286.547.64.768 1.11.027.056.052.074.119.082.22.027.447.055.672.097 3.684.69 6.251 3.358 6.697 6.968.013.095.02.193.029.29.019.229.039.465.112.678.091.269.228.534.363.788l.175.343.147.295c.117.233.237.469.336.712a1.65 1.65 0 0 1 .053 1.138c-.051.165-.157.19-.216.19-.044 0-.093-.014-.142-.042-.102-.062-.197-.13-.291-.2-.044-.035-.09-.066-.136-.098l-.15-.112c-.119-.087-.23-.172-.353-.236-.044-.024-.091-.036-.136-.036s-.092.013-.133.039l.174.146.924.776c.067.063.104.149.101.239-.036.542-.237.99-.599 1.336-.431.411-.884.61-1.381.61a1.96 1.96 0 0 1-.325-.028c-.02.182-.062.251-.222.331-1.019.519-2.012.773-3.035.773l-.16-.001c-.698 0-1.376.186-2.138.585-.262.137-.493.23-.71.284-.653.164-1.314.225-1.911.251.256.033.524.049.812.049a9.32 9.32 0 0 0 .577-.02l.117-.012c.086-.008.174-.015.258-.015.112 0 .205.013.283.043.533.205 1.055.453 1.543.689a.5.5 0 0 0 .228.06c.035 0 .063-.006.106-.019l.143-.05c.266-.096.543-.193.805-.302.626-.263 1.166-.385 1.699-.385.143 0 .285.01.427.028.365.047.791.119 1.176.348.19.11.443.292.466.635.001.006.014.026.044.053.046.04.095.078.144.116a2.77 2.77 0 0 1 .148.121 1.08 1.08 0 0 1 .393.969c-.011.107-.037.361-.266.361-.063 0-.152-.024-.265-.078-.042-.021-.086-.039-.131-.052.111.063.221.129.328.198.254.163.379.412.367.741-.024.716-.826 1.394-1.649 1.394a1.49 1.49 0 0 1-.285-.03c-.243-.05-.545-.146-.727-.443a.1.1 0 0 0-.032-.023l-.14.006c-.165.006-.336.012-.493.047l-.046.01c-.268.059-.545.116-.828.116a1.8 1.8 0 0 1-.322-.028c-.127-.022-.251-.051-.379-.081l-.093-.021a3.78 3.78 0 0 1-.703 1.249c-.717.858-1.674 1.463-2.922 1.848-.905.28-1.877.421-2.894.421-.533 0-1.093-.038-1.664-.113-2.249-.302-3.818-1.453-4.668-3.418-.143-.329-.238-.679-.332-1.018l-.142-.493c-.266-.853-.602-1.605-1.027-2.303-.771-1.267-1.725-2.169-2.918-2.759-.953-.471-1.995-.711-3.098-.711-.462 0-.945.042-1.436.124-.1.017-.199.037-.299.057.347.015.677.033 1.01.063 1.541.147 2.946.592 4.173 1.324 1.67.996 2.696 2.235 3.131 3.785.252.886.599 1.745 1.036 2.565.256.484.582 1.045 1.052 1.519.663.668 1.518 1.124 2.689 1.434.32.085.639.178.955.273.175.054.297.167.372.35.184.447.228.904.135 1.354-.138.662-.472 1.274-1.023 1.873-.435.471-.975.815-1.498 1.147-.255.16-.5.335-.734.522-.192.155-.292.358-.281.572.017.358.044.365.114.365.058 0 .15-.021.298-.066a2.49 2.49 0 0 0 .217-.08l.435-.177.747-.3c.543-.213 1.08-.322 1.595-.322a3.73 3.73 0 0 1 .818.091c.964.217 1.597.756 1.881 1.602.076.229.065.425-.035.585a.46.46 0 0 1-.342.197c-.117 0-.226-.097-.309-.184-.047-.048-.058-.112-.067-.167-.004-.018-.006-.037-.011-.06-.086-.301-.204-.498-.383-.63.32.409.463.845.438 1.33s-.41.817-.932.817a1.22 1.22 0 0 1-.065-.002c-.198-.012-.325-.112-.346-.278-.014-.114-.014-.239-.015-.346l-.001-.141a5.7 5.7 0 0 1 0-.185c0-.133.001-.257-.017-.38-.039-.265-.207-.444-.498-.531-.02-.007-.041-.012-.062-.014a.53.53 0 0 1 .218.206c.108.188.2.359.25.543.129.489.002.871-.368 1.105-.192.119-.438.165-.655.193-.089.012-.174.016-.261.016-.324 0-.641-.072-.947-.14l-.155-.036c-.29-.063-.547-.094-.793-.095-.211 0-.429.038-.641.075l-.098.017c-1.607.272-3.044.404-4.414.404z" class="E"/><path d="M54.034 42.603s-2.369 2.658-6.392 1.135c-3.679-1.396-2.342-5.24-2.342-5.24s.653 2.384 2.56 3.281c2.76 1.308 6.174.817 6.174.817zm-11.672 1.133c.507.49.523.992.684 1.604.304 1.15.677 2.149 1.456 3.095a6.26 6.26 0 0 0 2.803 1.971c1.002.361 2.292.255 2.093 1.659l-.336 1.181c-2.562 0-4.963-1.1-5.941-3.492-.858-2.099.152-4.635-2.446-8.183.208.24 1.414 1.909 1.681 2.166z" class="B F"/><path d="M41.346 42.699l.111.452a.51.51 0 0 1-.111-.452z" class="B C"/><path d="M11.487 51.87C1.82 50.971.682 41.92.682 41.92s-.525-4.195.7-8.31c.787 7.487 7.174 12.672 7.174 12.672s1.403 4.266 2.932 5.589z" fill="url(#A)"/><path d="M9.077 48.423s-2.027.181-4.732-2.907c2.608 4.45 5.988 4.542 5.988 4.542z" class="B C"/><path d="M14.302 53.62c-.507-8.37 4.718-4.486 7.421-8.925.758-3.878 3.033-6.34 3.033-6.34S8.578 35.502 8.324 46.598c.563 2.403 3.039 4.725 4.59 5.983-.303-.643-4.165-10.639 8.696-9.824-4.44-.356-10.849 4.007-7.794 10.542.306.21.492.322.492.322z" fill="url(#B)"/><path d="M18.676 41.55c-3.344 1.182-9.022 1.177-7.406 9.203-.259.183-1.551-1.703-1.229-1.52-1.487-7.176 5.191-6.761 8.635-7.684z" class="B"/><path d="M22.91 38.675c3.252-1.21.611 2.221.15 2.769-1.067 1.269-3.768.857-5.201 1.28-.828.243-4.145.701-5.245 3.656-.488 1.309-.672 3.448.368 6.053-.258.184-1.969-1.578-1.645-1.397-2.745-11.532 10.203-7.393 11.579-12.361z" opacity=".6" class="D"/><path d="M55.238 33.966c.089-.229.24-.522.431-.695.044.02.092.022.128.044.317-.193.825-.167 1.217-.167.238 0 .586-.062.816.022.335.122.297.453.438.705.263.469 1.078.475 1.075 1.138.002.312.086.735.001 1.04-.063.227-.333.157-.565.157l-2.109.018-.975-.683c-.254.078-.463-.435-.499-.608-.058-.288-.066-.686.044-.97z" fill="#f9e0e7"/><path d="M58.49 34.874c.119-.046.295-.226.368-.331.053-.076.038-.124.152-.121.298.008.3.385.285.58-.018.249-.125.479-.164.724-.096-.023-.15-.137-.258-.165-.086-.024-.209-.012-.3-.009-.132.006-.315.09-.434.042z"/><path d="M19.955 22.607l.063-.076c1.291-1.133 1.975-2.564 2.343-4.164.241-1.047-.067-1.971-.568-2.873-.009-.015-.025-.03-.042-.05l-.298.869c-.262.702-.579 1.381-1.083 1.962-.201.232-8.634 4.625-7.766 14.356.006.06.017.118.025.179.156-.137.292-.278.449-.394.561-.413 1.21-.676 1.886-.853a127.13 127.13 0 0 1 3.73-.91c1.431-.322 2.858-.625 4.228-1.117.769-.28 1.501-.644 2.18-1.086 1.023-.659 1.907-1.447 2.668-2.36.444-.531.65-.937.85-1.562.127.322.06 1.217-.13 1.79-.19.596-.531 1.106-.967 1.579.105-.032.219-.048.312-.098 1.206-.647 2.275-1.444 3.064-2.535.529-.731.852-1.532.897-2.424.001-.012.006-.025.011-.045.251 1.093.216 2.954-1.095 4.278.463-.154.888-.308 1.31-.428.355-.099.589-.294.785-.587.86-1.28 1.573-2.622 1.959-4.103.298-1.143.372-2.291.038-3.439-.379-1.298-1.212-2.297-2.347-3.085-.788-.552-1.657-.961-2.569-1.296-.055-.02-.11-.039-.165-.062-.009-.003-.013-.012-.048-.048l.879.229c1.307.365 2.559.835 3.667 1.604.989.68 1.747 1.528 2.125 2.644.338.999.309 2.008.066 3.018-.355 1.472-1.085 2.783-1.973 4.025l-.08.115c-.004.006-.003.015-.008.037a.56.56 0 0 0 .093-.036c1.858-.895 3.512-2.038 4.829-3.575 1.279-1.491 2.209-3.152 2.651-5.034.556-2.374-.054-4.483-1.689-6.342-1.034-1.177-2.311-2.067-3.725-2.792-1.825-.934-3.766-1.551-5.821-1.825-1.168-.161-2.338-.191-3.506.02-.642.115-1.058.273-1.776.66.09-.072.176-.149.27-.214.639-.456 1.375-.692 2.148-.839 1.279-.243 2.569-.24 3.858-.099 1.984.213 3.913.747 5.703 1.579l.545.263c0-.154-.009-.288.003-.421.017-.205.127-.322.298-.342.164-.019.254.039.292.191.025.128.033.26.053.389.044.293.189.543.403.758.022.022.046.041.073.058.013.009.029.008.075.017v-.3c-.003-.197-.011-.394-.006-.59.002-.048.038-.125.074-.135.049-.012.138.011.168.048.083.102.17.211.207.332.083.255.119.523.203.776.057.167.143.323.256.462.122.149.245.116.292-.066.043-.171.059-.348.086-.522.009-.06.011-.122.032-.179.016-.048.053-.088.081-.133.042.036.103.063.122.109.043.101.084.211.089.317.013.236-.01.474.008.71.01.119.054.259.119.367.072.121.188.107.228-.029.057-.193.086-.394.128-.597l.093-.43c.168.135.209.285.225.43.043.386.063.774.1 1.16a1.55 1.55 0 0 0 .316.792c.33.45.623.927.919 1.4.152.242.293.264.435.015.161-.283.281-.586.417-.883.06-.13.11-.261.172-.389.029-.062.079-.115.124-.179a.36.36 0 0 1 .169.398c-.046.215-.131.425-.19.638-.063.239-.133.465-.171.702-.015.095.032.21.077.302.065.134.169.15.281.045s.202-.236.312-.344c.064-.062.149-.1.225-.149.043.087.129.178.12.261-.016.177-.061.358-.13.524-.141.337-.33.658-.452 1-.088.248-.104.519-.133.783-.008.064.049.179.103.197s.168-.034.218-.086c.23-.238.447-.489.672-.733.055-.061.129-.104.193-.156.022.011.043.019.065.03-.022.137-.016.286-.07.415a3.8 3.8 0 0 1-.332.616c-.205.308-.439.598-.649.902-.388.563-.645 1.177-.806 1.832-.116.47-.281.931-.425 1.392-.017.057-.038.113-.041.177l.38-.571c.273-.396.589-.76 1.012-1.022.213-.131.442-.249.681-.332 1.226-.424 2.465-.819 3.634-1.372a7.17 7.17 0 0 0 .953-.558c.373-.231.539-.665.41-1.067l-.243-.932c-.198.297-.372.583-.572.852s-.447.496-.814.65c.033-.06.043-.085.059-.106.515-.668.812-1.426 1.041-2.212.023-.081-.003-.179-.019-.267-.105-.573-.055-1.147-.027-1.721a1.71 1.71 0 0 0-.011-.346c-.006-.053-.053-.118-.1-.137-.032-.014-.117.028-.146.064-.118.156-.25.31-.33.482l-.929 2.102c-.379.877-.807 1.727-1.459 2.458-.294.331-.63.619-1.041.82-.079.038-.162.068-.251.094.637-.62.78-1.404.809-2.207.038-1.027.016-2.057.027-3.085.011-1.112.109-2.215.462-3.286.013-.042-.009-.104-.034-.147-.1-.183-.226-.353-.308-.542-.173-.395-.317-.801-.487-1.193-.099-.234-.133-.251-.4-.233-.287.019-.458-.135-.61-.327-.116-.145-.164-.141-.244.029-.087.179-.155.376-.249.557-.032.062-.114.103-.174.153-.046-.063-.122-.119-.129-.193-.025-.221-.019-.441-.035-.662-.005-.11-.026-.219-.063-.323-.019-.048-.098-.101-.154-.105-.041-.003-.111.062-.128.111-.057.157-.092.32-.145.478-.043.127-.103.141-.184.037-.587-.752-1.37-1.284-2.206-1.758l-.736-.427a.45.45 0 0 1-.051.016l.095.767c-.022.012-.044.021-.066.032-.077-.062-.166-.119-.231-.186-.163-.181-.311-.373-.476-.553-.326-.36-.737-.618-1.132-.704l.361 1.166a.45.45 0 0 1-.063.024c-.041-.048-.089-.092-.122-.143-.095-.146-.19-.292-.278-.441-.377-.641-.951-1.011-1.72-1.114-.519-.07-1.043-.117-1.567-.15-.384-.025-.751-.078-1.102-.236-.246-.104-.51-.176-.769-.256-.044-.014-.102.003-.152.006.004.052-.008.112.015.155.122.224.254.443.377.668.044.08.074.169.11.255l-.035.036c-.078-.024-.159-.042-.232-.075-.337-.154-.68-.298-1.006-.471-.332-.177-.698-.191-1.058-.22-1.126-.09-2.238-.018-3.325.292-.662.187-1.273.47-1.811.907.068-.006.138-.006.203-.018.657-.127 1.314-.246 1.99-.225.46.014.908.083 1.313.302.063.035.105.107.157.161-.091.03-.186.087-.273.076-.209-.024-.415-.097-.627-.113-.674-.057-1.322.09-1.963.256-1.553.401-2.959 1.083-4.265 1.96-.318.213-.649.41-.979.609a4.99 4.99 0 0 0-1.579 1.487 1.18 1.18 0 0 0-.124.228.37.37 0 0 0 .2.515 2.3 2.3 0 0 0 .509.175c2.321.532 4.049 2.332 4.317 4.558.101.835.225 1.672.18 2.518-.101 1.943-.842 3.636-2.221 5.083-.82.86-1.79 1.545-2.851 2.12-.021.014-.044.023-.106.054z" fill="url(#C)"/><path d="M49.7 9.708c-.986 7.241-4.402 5.602-6.638 9.645-.122-.153-.404 1.083.159-1.211s2.179-1.26 3.709-3.887c1.936-3.321 1.55-3.619 2.77-4.546z" class="B D"/><path d="M39.493 9.845c-.367 2.073-3.489 1.979-6.148 1.1-2.897-.956-8.916-1.262-9.4-.122-.241.261-.727-.813-.727-.813s4.571-4.691 12.224.26c-.311-.456 2.75-1.79 2.75-1.79s.921-.263 1.302 1.366z" opacity=".3"/><g class="D"><path d="M23.636 29.745c.166.388 1.52.127 1.647-.479-1.997-2.128 3.26-6.038-1.588-11.14 3.173 7.872-3.582 8.192-.058 11.619z" class="B"/><path d="M23.636 29.745c.166.388.136.277.263-.328-1.997-2.128 3.322-5.231-.205-11.29 3.173 7.871-3.582 8.192-.058 11.618z" opacity=".6"/></g><path d="M30.912 28.191c9.595-9.498-2.535-7.907-6.489-14.353.006-.111.015-.218.015-.332 0-.896-.231-1.74-.633-2.488 3.7 5.162 13.081.61 11.259 11.164-.165.537-1.47 5.891-4.153 6.009z" fill="url(#D)"/><path d="M30.913 28.191c-3.951 1.824-7.404 1.877-7.241 1.335 7.849-5.009 1.513-10.172.036-15.034.102-.393.732-.539.732-.984 0-.048-.006-.093-.006-.14.114.483.384.656.643.895 3.648 3.461 15.245 4.618 5.837 13.929z" fill="url(#E)"/><path d="M29.675 28.05c6.076-8.536-5.267-10.157-5.184-12.864-.904 5.566 9.969 7.949-.247 14.61-.164.541 1.48.076 5.431-1.748z" class="G"/><path d="M46.653 13.221c.482.758-.053 1.652-.615 2.491-.519.774-1.772.521-2.622 2.388l.073-1.454c.942-1.543-.651-3.668-1.095-5.104-.761-2.446-1.575-4.703-.575-7.185l.194-.52a5.95 5.95 0 0 1 1.305 1.219c.284.35.184-.902.558-.638.274.191-.013 1.076.247 1.28.293.239.469-1.114.682-.816.495.7.78.257.991.465.19.191.637 1.657.818 1.855l.511.591c-.1 1.074-.321 2.268-.686 3.232-.344.91-.361 1.29.216 2.195z" fill="url(#F)"/><path d="M33.147 2.065c.029.01.054.014.063.014.266-.004-.717-1.166-.434-1.166.476 0 1.149.463 1.616.497.984.071 2.004.05 2.877.425.836.36 1.208 1.48 1.395 1.526s-.455-1.293-.27-1.233c.313.099.563.239.769.406.825 1.11 1.092 6.613-.117 6.471-1.271-.149 2.004.422 2.018.376 1.095-3.89-1.345-6.282-1.235-6.148.144.179.26.318.384.363.26.094-.162-.938.076-.801l1.734 1.05c.013.018.017.061.038.052.325-.127 2.329-.57.804 6.202 2.316-4.409.503-6.139.681-5.959.823.835.991 2.874 1.097 4.084.1 1.134-.658 3.72-1.642 4.575-.691.601-.679-.143-.939-.718-.427-.944-1.21-1.706-1.92-2.484-.529-.579-1.171-1.002-1.753-1.519-.634-.564-.967-1.353-1.534-1.972-.506-.554-1.129-.994-1.611-1.572-.539-.647-.901-1.386-1.497-1.982-.19-.191-.401-.334-.609-.487z" class="G"/><path d="M37.589 1.453c1.416-.004 2.304.634 3.476 1.243.97.507 2.164.513 2.984 1.211 1.089.931 1.56 1.852 1.765 3.213.235 1.55.262 3.52-.05 5.071-.16.792-.759 2.416-1.389 2.995l-.757-.453c-1.494-3.627-5.996-5.116-7.7-8.682-.502-1.05-.698-2.413-.704-3.56-.013-1.2 1.343-1.036 2.374-1.038z" fill="url(#G)"/><path d="M23.503 10.519c-.823-1.203-2.127-2.088-3.658-2.41-.389-.082-1.087-.31-.396-1.092.739-1.085 1.801-1.501 2.372-1.899 2.298-1.611 1.348-1.769 2.689-1.915.524-.057.386-.1.651 0s-.204-.07-.372-.175c-1.496-.931-1.388.926-.745.525 1.914-1.392 6.324-2.37 7.56-2.17.18.029 1.423.704 1.613.701.266-.004-.717-1.166-.434-1.166.476 0 1.149.463 1.616.497.964.07 3.898 1.335 3.877 4.667-.006 1.018.06 1.731-.086 2.395-1.069 4.873-11.899-1.966-14.687 2.042z" class="H"/><path d="M36.465 7.515c-.501-.589-3.763-1.653-3.763-1.653S27.285 4.107 22.29 9.107c2.553-1.905 7.039-1.105 10.283-.753.429.048-.926-.36-.571-.477 1.205-.419 2.321.756 3.522.529.56-.106.897-.391.941-.883z"/><path d="M32.31 6.69c-1.989-.493-3.977.229-4.361.251.18-.255.474-.842 1.947-1.045.339-.048 1.017.004 1.373.004.637-.001 1.032.143 1.594.398.358.162 1.224.335 1.5.295 0 0 3.048.216 2.039 1.188s-2.481-1.253-5.712-.542c.001-.099.739-.595 1.62-.549z" class="H"/><path d="M29.295 2.657c-1.257-.783-3.455-.112-3.74-.115-.006-.027.011-.058.062-.088 1.915-1.392 4.752-1.268 5.987-1.069.01.001.023.006.037.01l.022.008c.268.097 1.142.561 1.461.656 1.863.993 4.808 3.09 5.068 6.413-1.059-.443-1.82-.874-2.404-1.295-.19-.141-4.651-4.52-16.438.741 0 0-.328-.169-.141-.566 2.662-4.023 7.522-5.178 15.262-1.368-1.097-1.23-1.63-2.345-5.176-3.335z" fill="#f8d285"/><path d="M36.83 25.27c4.366-4.2 6.146-7.337 4.032-10.715-3.422-5.475-13.963.236-18.546-5.289.486.522 1.518 1.556 2.518 2.064 3.398 2.088 9.793 1.416 11.831 3.031 2.621 2.076 3.292 6.262.166 10.909z" fill="url(#H)"/><path d="M22.606 16.493c-.005.282.68 1.906.573 2.28-.92 3.194-4.905 4.761-4.905 4.761s-4.463 1.689-5.172 9.412c-.814.551-.701-.622-.676-1.144.507-10.128 9.465-8.995 10.181-15.308z" fill="url(#I)"/><path d="M37.792 33.228c-.074-.032-.144-.073-.221-.094l-1.176-.302c-.124-.033-.241-.086-.363-.129l.002-.074c.141-.024.279-.06.42-.067l1.689.002c.795.002 1.593-.002 2.359-.221a5.83 5.83 0 0 0 1.082-.448c3.624-1.897 6.184-4.674 7.725-8.29.315-.74.557-1.503.743-2.279.011-.043.017-.088.03-.162-.06.035-.099.051-.135.073a19.68 19.68 0 0 1-7.281 2.868c-.945.167-1.899.252-2.861.278-.072.002-.164.027-.211.074-1.437 1.378-3.134 2.398-4.966 3.245-1.461.677-3.005 1.086-4.591 1.376l-6.108 1.092c-2.499.452-4.984.953-7.399 1.722-1.532.487-3.017 1.072-4.374 1.91-1.021.632-1.931 1.379-2.575 2.374-.226.351-.387.74-.58 1.108-.036.066-.074.136-.128.186-1.347 1.239-1.877 2.747-1.671 4.496.153 1.294.646 2.478 1.349 3.591.082.131.153.267.218.382l.108-.912c.298-1.993 1.395-3.478 3.246-4.468 1.08-.579 2.243-.96 3.449-1.211 1.322-.274 2.655-.505 3.988-.733 1.617-.274 3.245-.505 4.818-.971a16.1 16.1 0 0 0 .908-.302 4.48 4.48 0 0 0 1.085-.548c1.115-.773 2.337-1.364 3.625-1.837.035-.012.07-.027.103-.039.002-.005.003-.012.008-.025-.021-.002-.039-.004-.058-.004l-4.326.001c-1.289-.008-2.574.03-3.853.188-1.77.221-3.483.652-5.152 1.249-1.968.706-3.831 1.611-5.637 2.625-.048.027-.098.06-.163.064.034-.026.065-.054.098-.078 1.978-1.413 4.083-2.617 6.399-3.46 1.61-.587 3.295-.972 5.011-1.144 1.52-.151 3.04-.137 4.56-.033l3.946.265a1.02 1.02 0 0 0 .347-.037c1.3-.372 2.632-.591 3.977-.771.793-.107 1.577-.286 2.363-.433.054-.01.105-.036.155-.056l.008-.043z" fill="url(#J)"/><path d="M13.573 37.4c5.152-5.79 18.521-2.761 24.218-4.171-3.607 1.949-6.548 1.612-6.548 1.612s-12.311-1.279-17.677 2.565z" class="B"/><path d="M52.972 15.429c-.174.028-.303.036-.421.072-.464.137-.948.239-1.383.436-.414.188-.798.455-1.157.729l-2.046 1.637c-.562.442-1.159.835-1.869 1.04-.228.06-.467.103-.707.14.926-.439 1.444-1.22 1.981-2.022-.046.008-.062.006-.074.012-1.412.65-2.795 1.343-4.052 2.243-.336.241-.6.513-.789.887-.302.593-.685 1.151-1.032 1.722l-.074.119.832-.163c1.106-.266 2.135-.716 3.145-1.205 1.577-.768 3.078-1.656 4.535-2.608.044-.032.094-.056.147-.073-.013.018-.024.036-.04.051-1.728 1.621-3.666 2.956-5.932 3.841a11.35 11.35 0 0 1-3.053.743c-.039.006-.091.017-.113.042l-.725.835 1.855-.376c1.687-.369 3.341-.837 4.922-1.512 1.167-.499 2.279-1.086 3.216-1.919 1.236-1.101 2.145-2.404 2.675-3.93.078-.224.102-.467.158-.744z" class="G"/><path d="M23.784 30.164l1.679-.573c7.177-2.103 9.541-3.857 9.541-3.857l7.203-5.016s1.177.847 2.701-.261c-1.038 1.172-4.224 2.084-4.224 2.084s-.147.922-1.186 1.639c2.835-.907 7.599-.647 10.903-3.445-2.499 6.648-8.705 1.581-14.704 5.715-.693.39-9.842 2.59-5.295 2.439s7.541 2.768 11.339 1.811c-3.565 1.217-6.715-.732-11.679-1.06.772.146 1.831.547 2.282 1.093-1.799-1.209-5.321-1.264-6.159-.988a23.12 23.12 0 0 0-2.399.418z" opacity=".6" class="D"/><path d="M40.983 32.216c-5.224 1.952-23.69-3.702-31.98 5.07 0 0-.622-.261 2.68-3.742 12.982-5.837 22.643-.317 29.3-1.327z" class="B C"/><path d="M49.061 24.44c1.546-.817.29 1.181-1.256 2.362-6.085 3.997-8.837-.551-14.872 1.638 9.235-4.788 10.139 1.179 16.128-3.999z" fill="url(#K)" opacity=".7"/><path d="M48.589 25.574c1.546-.817.762.047-.783 1.228-6.085 3.997-8.837-.551-14.872 1.638 5.941-3.11 9.666 2.312 15.655-2.866z" class="B D"/><path d="M18.546 23.431c-2.815 2.423-.608 7.73-.608 7.73l-2.004.404s-2.022-5.131 2.611-8.134z" fill="url(#L)" opacity=".7"/><path d="M23.405 19.367c2.122 3.552-3.505 8.437-.483 10.166-.048.233-1.728 1.026-1.649.796-3.729-5.381 2.421-6.665 1.614-10.03-4.313 5.533-4.359 6.628-2.264 10.132-.025.019-.256.302-.485.141-3.276-2.311-4.199-4.906 3.268-11.206z" fill="url(#M)" opacity=".7"/><path d="M30.338 26.583c.134 1.663 1.37-1.038 1.556-2.904.161-6.979-7.362-5.292-7.706-10.937-.732 6.423 7.408 6.282 6.149 13.841z" class="B D"/><path d="M37.632 23.815c.127 1.663 3.684-2.618 3.872-4.482-1.191-11.974-14.294-4.692-17.72-9.103 2.829 4.832 21.144-1.891 13.848 13.584z" opacity=".3"/><path d="M61.607 47.13l-.524.428c-.141.1-.291.188-.45.261-.383.174-.769.197-1.156.003-.602-.301-1.249-.323-1.91-.255a.47.47 0 0 0-.406.274c-.662 1.28-1.763 2.102-3.145 2.623-.159.06-.232.129-.254.291-.07.407-.1.808.003 1.215.167.65.596 1.116 1.175 1.474.606.376 1.281.597 1.98.762.839.195 1.689.327 2.556.325.441-.001.877-.049 1.3-.169.947-.268 1.531-.864 1.746-1.763l.334-1.768c.146-1.36-.242-2.582-1.199-3.63-.017-.02-.029-.045-.044-.07z" fill="url(#N)"/><path d="M58.87 47.231c.072.409.888.519 1.266.507.666-.021 1.097-.386 1.531-.861.065-.072.122-.15.172-.232.761.567 1.177 1.333 1.06 2.115-.206 1.372-2.011 2.277-4.029 2.011-1.395-.179-2.529-.88-3.027-1.747.369-.444.507-1.008 1-1.392.474-.372 1.41-.426 2.026-.401z" opacity=".3" class="H"/><path d="M9.777 34.273c.438.203.742.247 1.012.155-.311-1.492-.474-2.995-.419-4.509.062-1.675.37-3.306 1.152-4.834.099-.196.216-.383.348-.561-.008.03-.013.06-.025.088-.421.993-.615 2.03-.679 3.094-.1 1.659.108 3.291.488 4.907.009.039.022.078.038.135l.729-.465c.028-.02.029-.092.023-.137a12.42 12.42 0 0 1 0-2.944c.161-1.402.529-2.753 1.053-4.069.731-1.837 1.721-3.544 2.932-5.138l.082-.112c.006-.008.005-.018.013-.049l-.506.167c-1.114.38-2.205.808-3.255 1.326-.166.081-.321.18-.462.296-1.478 1.231-2.35 2.788-2.744 4.594l-.18.811.054-.9c.132-1.426.415-2.824.926-4.174.13-.343.039-.653-.016-.975-.017-.1-.093-.192-.142-.288-.083.075-.183.137-.241.226-.42.628-.69 1.319-.912 2.025-.339 1.082-.542 2.195-.709 3.313-.155 1.044-.254 2.088-.249 3.15.006 1.068.093 2.125.469 3.144.18.485.421.939.769 1.335.124.142.277.263.416.394l.03-.006z" fill="url(#O)"/><path d="M14.922 19.871s-2.82.373-4.009 2.197-1.532 4.958-1.532 4.958-.609 4.677 1.409 7.4C9.512 24.44 14.922 19.87 14.922 19.87z" class="B C"/><path d="M9.777 34.272l-.03.004c-.582-.214-1.036-.582-1.408-1.044-.541-.674-.826-1.454-1.001-2.269-.26-1.216-.283-2.445-.171-3.675l.263-2.1c.003-.025.004-.05.006-.1l-.104.084c-2.157 2.103-3.778 4.525-4.839 7.272a.39.39 0 0 0 .005.243c.634 1.905 1.551 3.689 2.674 5.377l1.499 2.092c.039.055.085.104.157.193.018-.35.216-.634.063-.977-.197-.437-.322-.897-.296-1.382.01-.179.056-.346.188-.512.131.351.233.696.525.954.086-.143.103-.268.049-.423-.203-.572-.345-1.156-.306-1.764.013-.186.063-.37.111-.557.178.456.469.829.807 1.188.019-.027.038-.045.048-.067.45-.877 1.029-1.673 1.717-2.4.032-.035.029-.097.042-.146z" fill="url(#P)"/><path d="M7.596 36.611S4.424 30.774 5.909 25.76c.184-.137-.298.217-.872.838-.087.094-1.151 6.714 1.007 9.632-2.901-3.237-1.527-9.02-1.649-8.852-.26.36-.492.758-.646 1.174-1.484 6.536 3.644 10.47 3.644 10.47z" class="B C"/><path d="M56.127 57.629l-.403.583c-.111.189-.127.403-.06.616.091.262.278.364.568.325l.7-.074c.249-.008.266.024.294.251.006.06.015.122.038.177.094.225.233.419.511.453.27.033.459-.109.605-.304.205-.265.246-.612.105-.912s-.44-.507-.786-.543c-.235-.03-.478.006-.718.012-.046.002-.092.01-.138.013l-.035-.039c.065-.072.114-.165.197-.21.172-.093.372-.13.568-.106 1.292.139 2.524-.005 3.62-.734.609-.406 1.057-.937 1.402-1.553.051-.124.139-.261.022-.346-.069-.05-.224-.028-.328.004l-1.44.464c-.714.184-1.454.19-2.188.152-.993-.05-1.968-.199-2.905-.53-1.051-.371-1.999-.895-2.822-1.617-.092-.085-.191-.163-.296-.233-.18-.112-.302-.057-.309.147a1.63 1.63 0 0 0 .044.435c.351 1.442 1.281 2.456 2.656 3.126.36.177.746.302 1.097.441z" class="E"/><path d="M1.545 30.789c-.055 5.202 1.724 9.718 5.428 13.552-.052-.353-.12-.706-.152-1.059a50.5 50.5 0 0 1-.117-1.811c-.002-.114-.042-.226-.113-.319-1.387-1.882-2.659-3.83-3.674-5.917-.515-1.059-.955-2.147-1.191-3.294-.076-.371-.118-.748-.179-1.151z" fill="url(#Q)"/><path d="M46.783 13.681c.663-1.08 1.348-2.118 1.591-3.341.041-.205.028-.422.015-.633-.072-1.18.057-2.333.464-3.456.036-.1.08-.205.077-.306-.007-.091-.045-.178-.108-.248-.076-.083-.179-.054-.277-.002-.313.167-.539.412-.722.696-.37.573-.568 1.205-.705 1.853-.377 1.775-.434 3.569-.36 5.374.001.009.006.018.025.064z" fill="url(#R)"/><path d="M47.173 6.805c.127-.241.617-.768.816-.92l.448-.269c-.444 1.081-.612 2.181-.612 3.332 0 .97.317 1.871.368 2.836.041.795-.328 1.195-.767 1.842-.198.291-.468.922-.898.925-.199-.459-.167-1.036-.171-1.529l-.081-1.758c.047-1.123.698-4.045.898-4.459z" opacity=".4" class="D"/><use xlink:href="#T" class="E"/><use xlink:href="#T" opacity=".4" class="C"/><path d="M45.233 38.338a3.4 3.4 0 0 0 .384 1.651c.54 1.044 1.431 1.728 2.548 2.176.974.391 1.995.525 3.048.473.013-.001.027-.006.072-.019-.714-.101-1.413-.278-2.084-.528-1.142-.431-2.16-1.044-2.946-1.959a5.19 5.19 0 0 1-.956-1.632l-.065-.162zm8.591-8.341c1.133-.656 1.378-2.18.652-3.055.171 1.092-.063 2.106-.652 3.055zm1.87 6c.554.427 1.221.545 1.917.534.278-.006.554-.05.832-.062a1.91 1.91 0 0 1 .455.033c.28.06.406.02.507-.239.217-.577.319-1.175.246-1.79-.036-.298-.1-.592-.223-.859-.484-1.064-1.949-1.501-3.034-.92a2.78 2.78 0 0 0-.396.258c-.132.101-.251.218-.388.338l.169.179c.131.127.181.276.141.444-.124.529.119.904.587 1.144.335.172.701.295 1.066.41.189.059.382.105.578.14.06-.002.086-.012.127-.047.292-.178.507-.418.631-.716.063.18.056.48-.006.702-.038.137-.013.474.061.572-.006.006-.011.012-.015.018l-.102-.051c-.375-.217-.795-.285-1.224-.335-.53-.063-1.045-.177-1.496-.464-.543-.346-.834-.826-.865-1.444-.001-.019-.005-.037-.012-.088-.491.903-.341 1.618.444 2.224z" class="I"/><path d="M56.418 34.055c0 .561.484 1.017 1.08 1.017s1.081-.455 1.081-1.017-.484-1.017-1.081-1.017-1.08.455-1.08 1.017z" fill="url(#S)"/><path d="M56.774 15.159c.024 0 .047-.006.068-.018l.255-.15a.12.12 0 0 0 .06-.102v-.3a.12.12 0 0 0-.06-.102l-.255-.15c-.02-.012-.044-.018-.068-.018s-.047.006-.068.018l-.255.15c-.037.022-.06.06-.06.102v.3a.12.12 0 0 0 .06.102l.255.15c.02.012.044.018.068.018zm4.476 36.024c.191.112.49.064.601-.134.461-.825.419-1.785-.032-2.605-.259-.47-1.034-.091-.776.378.308.561.37 1.249.063 1.798-.11.197-.07.439.143.563z"/><path d="M14.324 53.556c-.273-7.35 4.545-4.959 6.688-8.062.175-.193.277-.41.357-.579-2.406 1.246-9.149.413-7.045 8.64z" class="B F"/><path d="M10.657 39.228c6.615-5.357 19.678-4.773 20.634-4.697-5.479 3.675-21.915.221-22.518 11.408-1.068-3.178.307-5.434 1.884-6.712z" class="B C"/><g class="F"><path d="M21.231 45.207v2.771c.001 1.147-1.532.522-2.123-1.053 1.478-.545 2.124-1.718 2.124-1.718z" class="B"/><path d="M20.411 45.753c1.108-1.839-.03-3.43-.207-3.498.63-.031 1.839-1.142 2.127-1.512.444-.579.478-1.42.516-2.108.894-.038 1.522-.552 2.335-.735-.698.608-1.63 1.33-2.049 2.151-.374.729-.689 1.569-.941 2.345l-.523 1.922c-.094.488-.4 1.145-.344 1.62 0 0-.114 4.277.798 6.391-1.726-.553-2.632-1.879-2.947-2.392-.355-.58-1.026-2.024-.197-2.943.537-.185 1.124-.73 1.431-1.24z" class="B"/></g><path d="M4.234 51.309c3.477 4.506 8.128 7.402 13.907 8.66 1.926.419 3.884.535 5.859.527l24.244-.017c.774-.001 1.544-.05 2.283-.292.726-.236 1.286-.655 1.597-1.332.447-.978.065-2.207-.899-2.871-.708-.486-1.52-.626-2.375-.591-.23.011-.459.044-.688.066-.053.006-.109.017-.158.006-.074-.015-.143-.05-.214-.075.041-.056.063-.124.123-.165.884-.707 1.492-1.578 1.782-2.635a3.21 3.21 0 0 0 .099-1.17l-.006-.091c-.008-.204.065-.267.279-.277l1.893-.097c.301-.023.599-.092.939-.112-.04.049-.07.121-.122.143-.483.203-.848.594-.998 1.071-.193.573-.33 1.159-.301 1.767.043.982.449 1.827 1.11 2.571.594.668 1.326 1.171 2.154 1.553.106.049.134.092.098.205a1.42 1.42 0 0 0 .027.966.8.8 0 0 0 .398.439c.432.231.954.258 1.411.073.013.064.025.136.042.198.137.489.473.684.979.97h.354c.015 0 .028-.036.043-.038.892-.141 1.267-.909 1.164-1.635-.027-.187-.084-.372-.123-.54.404-.1.821-.178 1.218-.308 1.836-.601 3.048-1.767 3.562-3.543.205-.71.078-1.347-.507-1.874-.037-.035-.04-.118-.032-.175.114-.671.29-1.338.336-2.013.11-1.602-.425-3.007-1.61-4.178-.063-.069-.074-.127-.056-.211.078-.359.167-.718.214-1.081.097-.734-.2-1.34-.72-1.87-.046-.048-.097-.098-.119-.156-.146-.407-.445-.685-.842-.872-.799-.379-1.647-.456-2.52-.319-.572.09-1.094.316-1.611.547-.228.101-.438.152-.648-.021-.035-.03-.092-.036-.125-.064-.058-.052-.157-.124-.146-.167.015-.067.099-.143.172-.17.402-.149.818-.23 1.253-.23a8.77 8.77 0 0 0 .979-.045c1.032-.117 1.979-.468 2.867-.967.059-.033.125-.062.192-.072 1.153-.17 2.065-1.009 2.272-2.089.02-.109.018-.233.077-.32.486-.708.526-1.459.245-2.231-.178-.489-.425-.957-.622-1.44-.104-.26-.211-.527-.238-.796-.071-.765-.179-1.524-.397-2.263-.466-1.578-1.297-2.947-2.631-4.02-1.347-1.083-2.925-1.652-4.675-1.828-.138.001-.26-.082-.303-.205-.382-.814-1.01-1.386-1.914-1.684-.235-.078-.469-.094-.689-.001-.315.137-.634.273-.917.459-.738.484-1.322 1.114-1.808 1.825-.038.06-.08.124-.136.142-.076.024-.188.032-.247-.006-.044-.029-.055-.144-.038-.212.02-.079.085-.149.136-.22 1.271-1.725 2.118-3.695 2.479-5.767.019-.071.059-.136.115-.186l.955-.899c.507-.486.808-1.074.972-1.728.043-.171.063-.347.076-.522.004-.054-.051-.109-.079-.164-.06.033-.139.052-.176.1-.086.11-.146.236-.224.349-.052.075-.12.139-.181.211-.019-.042-.015-.066-.005-.088a9.72 9.72 0 0 0 .683-2.496 6.92 6.92 0 0 0 .06-.723c.005-.175-.119-.286-.244-.239a.57.57 0 0 0-.176.127c-.5.465-1.089.811-1.694 1.138-.013-.018-.023-.025-.024-.034l-.046-.253c-.162-.993-.44-1.959-.761-2.923-.246-.731-.385-1.48-.249-2.249.081-.459.254-.875.669-1.168.032-.022.053-.057.089-.097-.048-.024-.078-.046-.112-.053-.599-.124-1.218-.051-1.553.595-.038.072-.089.137-.159.246-.076-.142-.15-.235-.174-.336-.117-.508-.15-1.031-.098-1.549.063-.643.306-1.232.602-1.806a2.96 2.96 0 0 0 .199-.46c.089-.286-.081-.497-.4-.492-.16.001-.319.028-.47.078-.783.277-1.378.764-1.773 1.459-.032.057-.061.113-.097.181-.314-.286-.6-.567-.748-.95-.095-.245-.222-.482-.351-.711-.094-.165-.164-.161-.278-.012-.032.041-.058.085-.092.123-.088.1-.155.1-.225-.012-.062-.099-.108-.209-.15-.315-.198-.51-.543-.958-.997-1.294-.032-.022-.067-.039-.14-.082l.067.419.053.4c-.042-.005-.054-.004-.062-.008-.045-.027-.09-.055-.134-.084-1.855-1.205-3.882-2.043-6.074-2.532C37.51.958 36.81.906 36.206.549c-.013-.008-.03-.012-.044-.019-.119-.044-.207-.02-.299.067-.059.055-.165.079-.247.078-.268-.006-.535-.061-.802-.082-.245-.019-.497-.072-.733-.127C33.676.37 33.284 0 32.887 0h-.288c-.093 0-.203.251-.277.338-.131.155-.292.335-.499.348a23.69 23.69 0 0 0-4.047.579c-2.025.473-3.926 1.205-5.63 2.358-1.245.843-2.313 1.843-3.07 3.113-.155.258-.277.534-.4.807-.093.21-.116.432-.038.652.065.181.209.28.406.252 1.113-.165 2.055.218 2.918.811s1.522 1.348 1.898 2.297c.553 1.4.254 2.652-.789 3.761-.105.112-.225.214-.353.335l-.136-.479c-.236-.758-.573-1.465-1.146-2.055-.333-.344-.465.063-.381.686.18 1.326-.252 2.466-1.234 3.424-.06.06-.15.096-.235.123l-3.103 1.032c-1.835.642-3.608 1.414-5.287 2.366l-.072.037c-.159-.097-.224-.241-.217-.402.009-.215.046-.429.073-.644.002-.026.011-.05.014-.075.055-.379-.103-.502-.474-.333a1.56 1.56 0 0 0-.49.376c-.428.482-.693 1.052-.947 1.623-.134.302-.241.615-.377.916-.05.11-.127.221-.224.298-1.454 1.163-2.81 2.415-3.958 3.856-.983 1.235-1.824 2.547-2.505 3.952-.017.037-.037.073-.056.109-.005.008-.015.012-.037.031a12.91 12.91 0 0 1-.136-3.694c-.105.367-.221.734-.312 1.104-.373 1.494-.488 3.007-.378 4.536a.61.61 0 0 1-.041.236C.577 34.107.243 35.57.1 37.064c-.497 5.221.853 9.995 4.129 14.242zM2.916 35.236c1.015 2.088 2.287 4.035 3.674 5.917.073.099.107.197.113.319l.117 1.811c.032.354.101.708.152 1.059-3.704-3.834-5.483-8.349-5.428-13.551.062.404.103.781.18 1.151.236 1.149.676 2.235 1.191 3.296zm13.611-15.404c-.008.03-.008.041-.013.049l-.082.112c-1.21 1.595-2.201 3.302-2.932 5.138-.525 1.316-.892 2.668-1.053 4.069a12.42 12.42 0 0 0 0 2.944c.006.046.006.118-.023.137-.237.159-.48.31-.729.465-.017-.057-.03-.094-.038-.135-.382-1.617-.59-3.247-.488-4.907.065-1.063.258-2.1.679-3.094.013-.029.017-.06.025-.088a3.98 3.98 0 0 0-.349.561c-.781 1.527-1.091 3.158-1.152 4.834-.055 1.513.108 3.018.419 4.509-.271.091-.575.048-1.012-.155-.013.05-.013.112-.043.146-.688.721-1.265 1.529-1.717 2.4-.011.022-.029.039-.048.067-.338-.36-.63-.734-.807-1.188a2.62 2.62 0 0 0-.111.557c-.038.608.103 1.192.306 1.764a.46.46 0 0 1-.049.423c-.292-.264-.393-.61-.525-.954-.132.166-.178.334-.188.512-.025.484.1.944.296 1.382.152.342-.044.626-.063.977-.072-.088-.119-.137-.157-.193-.501-.696-1.025-1.379-1.499-2.092-1.123-1.688-2.04-3.47-2.674-5.377a.39.39 0 0 1-.005-.243c1.062-2.747 2.683-5.17 4.839-7.272.025-.026.058-.047.104-.084-.002.05-.003.075-.006.1-.09.7-.2 1.4-.263 2.1-.111 1.23-.089 2.458.171 3.675.175.816.461 1.595 1.001 2.269.371.462.826.83 1.408 1.044-.14-.131-.292-.252-.417-.394-.349-.397-.59-.851-.769-1.335-.378-1.018-.464-2.076-.469-3.144-.006-1.056.093-2.105.249-3.15.167-1.118.369-2.229.708-3.313.222-.708.492-1.397.912-2.025.059-.087.16-.151.241-.226.049.095.124.188.142.288.056.322.146.632.016.975-.511 1.351-.794 2.748-.926 4.174-.028.299-.036.6-.054.9.079-.27.12-.537.18-.811.393-1.806 1.265-3.363 2.744-4.594.141-.116.296-.215.462-.296 1.05-.517 2.141-.946 3.255-1.326l.506-.166zM48.93 5.943c.003.101-.041.206-.077.306-.407 1.124-.537 2.277-.464 3.456.013.211.025.43-.015.634-.243 1.223-.927 2.262-1.591 3.341-.019-.046-.025-.055-.025-.062-.074-1.802-.017-3.599.36-5.373.138-.648.335-1.281.705-1.853.182-.284.409-.529.722-.696.097-.052.201-.082.277.002a.41.41 0 0 1 .107.245zm.793 9.556a7.22 7.22 0 0 1-.953.557c-1.17.553-2.409.947-3.634 1.372-.238.082-.467.2-.681.332-.424.261-.739.628-1.012 1.024-.131.187-.254.381-.381.571.003-.064.024-.119.041-.178.145-.463.309-.922.425-1.392.162-.656.419-1.268.806-1.83.209-.304.444-.594.649-.903a3.74 3.74 0 0 0 .332-.616c.053-.128.048-.277.07-.416-.021-.01-.042-.02-.065-.03-.065.051-.138.095-.193.155l-.672.733c-.051.054-.162.105-.218.086s-.111-.131-.103-.197c.029-.263.044-.535.133-.783.127-.342.317-.656.452-1.001a1.77 1.77 0 0 0 .13-.524c.008-.084-.079-.174-.121-.261-.076.048-.162.087-.224.149-.11.109-.198.237-.312.344s-.216.087-.281-.046c-.046-.093-.093-.208-.077-.302.038-.237.108-.47.171-.704.06-.212.144-.422.19-.637.032-.145-.008-.289-.169-.398-.044.062-.095.115-.124.178-.063.128-.114.261-.172.389-.136.295-.256.599-.417.883-.142.249-.282.227-.435-.015-.295-.472-.588-.954-.918-1.4-.182-.248-.288-.502-.316-.792l-.1-1.16a.59.59 0 0 0-.225-.43l-.093.431c-.042.197-.07.397-.128.591-.04.136-.156.149-.228.029-.065-.11-.11-.241-.119-.366-.018-.236.005-.474-.008-.71-.005-.107-.046-.215-.089-.317-.019-.044-.08-.073-.122-.109-.028.044-.065.085-.081.133-.019.057-.022.118-.032.179-.027.174-.043.352-.086.522-.046.185-.169.215-.292.066a1.52 1.52 0 0 1-.256-.462c-.086-.254-.122-.52-.203-.777-.038-.119-.126-.23-.207-.332-.03-.037-.119-.061-.168-.048-.036.009-.072.087-.074.136-.004.196.004.393.006.589v.3c-.046-.01-.063-.009-.075-.015a.4.4 0 0 1-.073-.059c-.214-.215-.358-.463-.403-.758-.019-.131-.027-.261-.053-.389-.032-.152-.128-.209-.292-.191-.171.019-.281.137-.298.342-.013.134-.003.267-.003.421l-.545-.263c-1.803-.841-3.706-1.36-5.703-1.58-1.29-.141-2.579-.145-3.858.099-.774.147-1.51.384-2.148.839-.094.06-.18.142-.27.213.712-.388 1.128-.545 1.776-.66 1.168-.211 2.338-.179 3.506-.02 2.041.277 4.012.895 5.821 1.827 1.414.725 2.692 1.615 3.725 2.792.078.087.152.179.224.268-2.115-.95-4.505.838-6.895.044 3.275 1.588 5.215-.458 7.062.866.469.337.554 1.205-.52 1.059-1.025-.137 1.544.34 2.004 2.851-.025.41-.087.827-.186 1.253-.441 1.881-1.373 3.543-2.651 5.034-1.317 1.534-2.97 2.679-4.829 3.572-.032.007-.063.017-.093.029.005-.021.004-.032.008-.037l.079-.114c.888-1.241 1.617-2.552 1.973-4.025.244-1.014.273-2.019-.066-3.017-.379-1.116-1.135-1.964-2.125-2.644-1.117-.762-2.37-1.238-3.676-1.603-.279-.078-.563-.147-.879-.229.035.036.039.045.048.048.054.021.109.042.165.062.912.335 1.781.744 2.569 1.297 1.134.794 1.968 1.792 2.347 3.09.334 1.149.254 2.297-.038 3.439-.385 1.48-1.097 2.82-1.959 4.102-.19.292-.431.488-.785.587-.428.119-.847.273-1.31.427 1.31-1.323 1.346-3.184 1.095-4.276-.004.019-.011.032-.011.044-.044.891-.368 1.692-.896 2.424-.789 1.092-1.858 1.888-3.063 2.535-.093.05-.207.066-.312.098.436-.473.771-.989.967-1.579.19-.572.256-1.468.13-1.79a4.12 4.12 0 0 1-.85 1.563c-.761.912-1.645 1.7-2.669 2.357-.687.441-1.406.808-2.18 1.086-1.369.494-2.797.796-4.215 1.123l-3.73.91c-.675.178-1.324.44-1.886.853-.1-.21-.289-.952-.296-1.542-.082-6.948 5.796-10.661 7.587-12.606.521-.567.821-1.26 1.083-1.962.107-.285.198-.573.298-.869.017.021.034.036.042.05.501.904.809 1.827.568 2.873-.368 1.601-1.053 3.031-2.343 4.164-.014.012-.025.029-.063.076.063-.03.085-.038.106-.051 1.061-.575 2.031-1.253 2.851-2.12 1.379-1.446 2.119-3.138 2.221-5.083.044-.847-.079-1.682-.18-2.518-.268-2.225-1.995-4.026-4.317-4.558-.177-.039-.348-.097-.509-.175a.37.37 0 0 1-.2-.515 1.2 1.2 0 0 1 .124-.228c.405-.598.943-1.106 1.579-1.487.33-.197.661-.394.979-.609 1.307-.878 2.712-1.559 4.265-1.96.641-.165 1.289-.311 1.963-.256.211.016.417.09.627.113.087.011.182-.048.274-.073-.052-.054-.093-.125-.157-.16-.406-.22-.854-.288-1.313-.302-.675-.022-1.333.099-1.99.225-.066.012-.136.012-.203.018.539-.438 1.149-.721 1.811-.907 1.088-.31 2.2-.381 3.325-.292.36.029.726.042 1.058.22.326.179.669.318 1.006.471.073.033.154.05.232.075l.035-.036c-.036-.086-.065-.174-.11-.255-.122-.224-.254-.443-.377-.668-.022-.042-.011-.103-.015-.155.051-.002.108-.02.152-.006.259.081.523.153.769.261.352.157.719.211 1.102.236a23.02 23.02 0 0 1 1.567.15c.762.103 1.343.473 1.72 1.114.089.149.182.297.278.443.034.052.081.095.122.143.019-.008.038-.014.063-.024l-.361-1.166c.395.085.805.342 1.132.703.165.18.312.373.476.553.065.072.154.124.231.186.022-.012.044-.02.066-.032l-.095-.767c.016-.006.033-.012.051-.015l.736.426c.836.474 1.619 1.007 2.206 1.759.081.104.141.09.184-.037.053-.158.087-.322.145-.479.017-.048.087-.113.128-.11.057.004.135.057.154.105.037.104.058.213.063.323.016.221.01.443.035.656.008.067.084.13.129.193.06-.05.143-.09.174-.153.093-.181.162-.372.249-.557.08-.171.127-.173.243-.029.152.191.317.346.61.327.266-.019.3-.001.4.239.169.398.313.804.487 1.193.082.189.209.36.308.542.025.043.046.104.034.147-.353 1.071-.444 2.174-.462 3.286l-.027 3.085c-.029.804-.171 1.587-.809 2.207a1.65 1.65 0 0 0 .251-.094c.411-.2.747-.489 1.041-.82.651-.733 1.078-1.581 1.459-2.458l.929-2.102c.079-.179.211-.326.33-.483.029-.037.113-.079.146-.064.048.02.093.086.1.137.017.119.017.239.011.346-.027.575-.078 1.149.027 1.721.015.088.042.186.019.267-.228.786-.527 1.545-1.041 2.212-.016.021-.025.047-.059.106.368-.154.614-.382.814-.65s.374-.555.572-.852l.243.932c.114.446-.028.81-.41 1.072zm.415 4.604c-.937.833-2.049 1.42-3.216 1.919-1.579.675-3.235 1.144-4.922 1.512-.603.131-1.21.246-1.855.376l.725-.835c.022-.026.073-.037.113-.042 1.057-.103 2.074-.36 3.053-.743 2.264-.884 4.204-2.22 5.932-3.841.016-.015.027-.034.04-.051a.52.52 0 0 0-.147.073c-1.459.952-2.958 1.84-4.535 2.608-1.01.489-2.038.94-3.145 1.205-.26.063-.526.104-.832.163l.074-.119c.348-.571.729-1.129 1.032-1.722.189-.373.453-.646.789-.887 1.256-.899 2.64-1.593 4.052-2.243.013-.006.029-.004.074-.012-.537.802-1.055 1.582-1.981 2.022.24-.037.478-.075.707-.14.71-.205 1.308-.598 1.869-1.04l2.046-1.637c.359-.274.742-.539 1.157-.729.435-.197.919-.3 1.383-.435.119-.037.247-.043.421-.072-.063.277-.081.519-.159.746-.53 1.525-1.44 2.829-2.675 3.929zm-8.552 11.792c-.343.184-.706.335-1.082.448-.768.218-1.565.222-2.36.221l-1.689-.002c-.141.002-.28.043-.421.067l-.002.074c.12.044.239.097.363.13l1.177.302c.076.021.146.062.221.094l-.008.043c-.051.019-.101.046-.155.057-.787.146-1.57.325-2.363.431-1.344.181-2.676.399-3.978.771a1.07 1.07 0 0 1-.347.039l-3.946-.265c-1.521-.104-3.042-.118-4.56.033-1.725.171-3.395.557-5.011 1.144-2.321.844-4.427 2.048-6.404 3.458-.034.024-.065.053-.098.078a.51.51 0 0 0 .163-.064c1.806-1.014 3.669-1.919 5.637-2.625 1.668-.597 3.381-1.029 5.152-1.249 1.279-.159 2.564-.196 3.853-.188l4.326-.001c.019 0 .038.002.058.004-.005.011-.006.018-.008.019l-.103.04c-1.288.474-2.51 1.066-3.625 1.837a4.48 4.48 0 0 1-1.085.548c-.3.107-.602.211-.908.302-1.573.467-3.2.696-4.818.971l-3.989.74c-1.205.251-2.368.634-3.449 1.211-1.856.992-2.948 2.476-3.245 4.468-.047.313-.074.631-.108.912-.065-.119-.135-.251-.218-.382-.704-1.113-1.196-2.297-1.349-3.592-.207-1.748.317-3.257 1.671-4.496.055-.051.093-.119.128-.186.194-.37.355-.758.58-1.108.643-.993 1.552-1.742 2.575-2.374 1.357-.838 2.842-1.423 4.374-1.91 2.415-.773 4.901-1.274 7.4-1.726l6.108-1.093c1.586-.289 3.129-.698 4.59-1.375 1.833-.848 3.529-1.867 4.966-3.245.048-.047.14-.072.211-.074.961-.026 1.915-.11 2.861-.278 2.643-.477 5.065-1.44 7.281-2.868.036-.022.075-.039.135-.073-.013.075-.019.119-.03.162-.187.777-.428 1.539-.743 2.279-1.541 3.619-4.102 6.395-7.725 8.292zM62.85 50.829c-.064.594-.195 1.183-.334 1.768-.216.899-.799 1.494-1.746 1.763-.424.121-.859.168-1.3.17-.867.002-1.716-.13-2.556-.325-.699-.165-1.374-.386-1.98-.762-.577-.358-1.015-.825-1.175-1.474-.103-.406-.074-.808-.003-1.215.012-.139.116-.256.26-.291 1.381-.519 2.483-1.341 3.145-2.623.068-.157.226-.264.406-.274.66-.069 1.307-.046 1.91.255.387.193.774.171 1.156-.003.159-.073.309-.161.45-.261.174-.125.332-.27.524-.428.017.026.028.05.044.069.956 1.049 1.343 2.27 1.199 3.631zm-10.212 2.654c.106.066.201.149.296.231.823.722 1.771 1.245 2.822 1.617.939.331 1.913.48 2.905.53.734.037 1.474.031 2.188-.152.488-.119.958-.314 1.44-.463.103-.032.259-.06.328-.004.117.085.029.221-.014.334-.352.628-.801 1.161-1.41 1.565-1.096.728-2.328.872-3.62.734a.95.95 0 0 0-.568.106c-.081.044-.131.137-.197.21.013.012.023.027.035.039.046-.005.092-.012.138-.013.24-.007.484-.042.718-.012.346.036.646.243.786.543s.1.647-.105.912c-.146.195-.336.335-.605.304-.278-.035-.416-.228-.511-.453-.021-.057-.034-.117-.039-.177-.028-.227-.046-.259-.294-.251-.235.006-.467.041-.7.074-.289.038-.477-.062-.568-.325a.72.72 0 0 1 .06-.616c.12-.207.273-.394.403-.584-.351-.137-.738-.263-1.097-.438-1.374-.67-2.306-1.684-2.656-3.126a1.57 1.57 0 0 1-.045-.435c.006-.206.129-.263.308-.149zm.717-1.805c.103.304.171.614.309.891.32.642.888 1.058 1.552 1.347 1.576.681 3.237.986 4.966.847 1.048-.083 1.916-.495 2.403-1.432.002-.004.008-.006.027-.02.305.12.514.389.542.699.039.301-.097.533-.366.668-.348.174-.702.354-1.076.459-1.581.45-3.179.44-4.776.076-1.217-.277-2.339-.746-3.318-1.49-.382-.29-.731-.61-.948-1.033-.054-.105-.104-.231-.095-.343.028-.346.436-.666.78-.665zm-50.2-7.569c-1.283-2.1-1.951-4.328-1.952-4.669a19.72 19.72 0 0 1 .254-3.194c.039-.246.091-.489.136-.735.048.045.063.09.079.137.19.592.355 1.193.571 1.777 1.14 3.057 2.875 5.8 5.023 8.319.08.093.143.199.184.312a12.87 12.87 0 0 0 1.995 3.692c-.963-.386-2.06-.525-3.367-1.939 1.605 2.911 5.408 4.066 5.408 4.066 2.117 1.781 4.579 2.958 7.307 3.663.22.057.443.101.666.152-.049-.044-.103-.062-.159-.082-2.03-.683-3.901-1.635-5.594-2.891-2.108-1.563-3.701-3.489-4.654-5.863-.101-.255-.15-.493-.046-.758.071-.179.108-.37.167-.552.448-1.376 1.148-2.613 2.276-3.612 1.078-.957 2.374-1.535 3.78-1.925 1.683-.464 3.422-.635 5.153-.849 1.004-.123 2.003-.272 3.004-.416.269-.038.535-.1.821-.155-.022.033-.028.048-.038.06-.78.82-1.436 1.737-1.95 2.725-.032.061-.103.122-.171.143-.463.137-.922.3-1.395.39-.704.131-1.423.183-2.126.313-3.772.704-4.935 2.605-4.917 2.588 1.146-1.144 2.979-1.468 3.463-1.626 1.129-.37 2.299-.47 3.484-.459.346.005.691.024 1.049.037-1.063 3.266-.924 6.443.518 9.568a.6.6 0 0 0-.028-.171c-.564-2.014-.793-4.051-.469-6.125.389-2.518 1.553-4.664 3.497-6.431 1.457-1.324 3.17-2.278 5.008-3.046 1.746-.73 3.582-1.181 5.433-1.602 1.393-.316 2.791-.625 4.167-1.006 1.842-.507 3.509-1.342 4.93-2.574.22-.191.442-.386.623-.608 1.197-1.457 2.656-2.598 4.453-3.341.114-.358.312-.734.622-1.127.439-.553.982-1.008 1.567-1.416.165-.115.386-.181.592-.22.224-.044.36.058.436.262a1.33 1.33 0 0 1 .046.175 1.26 1.26 0 0 1 .356.185c.081.058.159.122.228.188.33.313.562.685.75 1.084.028.076.104.129.19.132.222.027.446.057.666.097 3.568.663 6.17 3.217 6.623 6.888.041.331.038.674.143.984.135.394.358.762.543 1.141.163.334.342.66.482 1.002.145.346.163.727.05 1.083-.038.126-.117.16-.222.098-.147-.087-.279-.197-.42-.295-.171-.119-.33-.257-.514-.358-.15-.078-.321-.062-.455.084.032.022.063.039.08.06l1.099.928c.043.037.074.112.07.17-.032.487-.204.929-.573 1.28-.474.452-1.031.692-1.724.54-.018.243-.035.285-.19.36-.964.491-1.985.78-3.089.761-.812-.013-1.545.229-2.244.597a3.19 3.19 0 0 1-.689.276c-.761.188-1.53.243-2.309.262-.063.001-.127.005-.19.008.031.034.073.056.12.065.622.137 1.251.155 1.886.112.206-.014.438-.055.615.012a19.73 19.73 0 0 1 1.536.684c.141.069.266.101.409.051.32-.113.642-.224.954-.355.663-.277 1.343-.444 2.075-.35.401.051.792.134 1.142.335.227.131.406.298.423.57.003.038.04.081.073.109.094.082.198.155.292.236a1 1 0 0 1 .363.898c-.03.298-.124.348-.4.216-.127-.063-.273-.115-.412-.015.178.106.35.202.516.309.247.16.336.39.327.668-.025.772-.994 1.456-1.825 1.283-.274-.057-.519-.159-.669-.403-.019-.032-.076-.066-.114-.064-.217.012-.438.01-.647.054-.384.082-.764.168-1.159.098-.182-.033-.361-.08-.55-.12a3.7 3.7 0 0 1-.713 1.299c-.752.898-1.74 1.468-2.88 1.82-1.478.456-2.996.507-4.516.301-2.198-.295-3.755-1.417-4.596-3.365-.208-.482-.315-1.001-.472-1.503a10.42 10.42 0 0 0-1.034-2.322c-.719-1.18-1.662-2.151-2.954-2.792-1.451-.72-2.994-.863-4.592-.597-.303.051-.601.124-.937.195.584.033 1.121.044 1.654.095 1.482.14 2.871.559 4.134 1.311 1.501.895 2.624 2.07 3.093 3.735a13.02 13.02 0 0 0 1.042 2.58c.292.554.615 1.084 1.068 1.539.75.756 1.693 1.183 2.732 1.458.319.085.637.176.952.273.156.048.254.151.315.3.174.425.224.859.13 1.305-.146.703-.511 1.299-1.002 1.833-.422.459-.951.796-1.48 1.132a7.48 7.48 0 0 0-.742.528c-.203.162-.327.385-.314.64.022.455.051.527.533.376a2.7 2.7 0 0 0 .224-.082l1.182-.477c.76-.298 1.548-.409 2.358-.227.897.202 1.53.698 1.815 1.545.058.173.072.358-.027.513a.37.37 0 0 1-.26.155c-.082.002-.178-.085-.245-.154-.041-.043-.04-.123-.058-.186-.093-.327-.244-.616-.585-.774-.065-.03-.138-.038-.208-.058.455.444.701.946.668 1.551-.025.459-.408.759-.901.734-.143-.008-.244-.072-.254-.203-.019-.159-.013-.32-.015-.481-.006-.191.01-.385-.019-.573-.044-.307-.246-.507-.56-.602a.59.59 0 0 0-.438.047c.198.038.381.094.486.268.095.167.194.341.241.523.103.392.053.771-.33 1.012-.172.107-.406.153-.618.18-.455.06-.891-.062-1.331-.157a3.87 3.87 0 0 0-.805-.097c-.254-.001-.511.05-.763.093-1.534.26-3.075.149-4.63.132l-5.068-.012-9.073-.001-3.747.004c-1.722-.01-3.425-.193-5.091-.604C11.64 57.69 6.891 54.46 3.762 49.044c-1.38-2.389-2.167-4.944-2.444-7.627-.034-.31 1.862 3.008 1.843 2.682z" class="I"/><path d="M52.758 30.04c-.533-1.068-.539-1.518.051-2.528.444-.762 1.624-.084 1.464-.935-.067-.74-.891-1.552-1.044-1.729-.188-.209-.292-.415-.57-.362-.254.049-.495.164-.698.307-.721.504-1.389 1.066-1.931 1.747-.979 1.229-.575 1.973.571 2.953.485.413 2.216.656 2.158.549z" class="E"/><path d="M51.699 25.989c.282-.29.722-.57 1.18-.858.244-.152-.482 1.71-.693 2.207-.693 1.629.216 2.637-.035 2.512-.549-.274-1.334-1.233-1.389-1.825-.061-.641.469-1.556.935-2.036z" class="B C"/><path d="M52.54 29.941c-.533-1.067-.539-1.518.051-2.528.444-.762.649-1.53.488-2.382a1.84 1.84 0 0 0-.07-.283c-.095-.257-.261-.382-.539-.328-.254.049-.526.13-.729.271-.721.504-1.389 1.066-1.931 1.747-.751.943-.669 1.585-.1 2.299.163.204.263.198.473.235.271.048.327-.307.241-.451-.198-.331-.33-.662-.354-.925-.06-.642.322-1.339.788-1.82.433-.445 1.306-1.136 1.904-1.304.144.519-.163 1.557-.358 2.06-.237.614-.955 1.737-.775 2.469 0 0 .254.677.521.848s.389.089.389.089z" class="I"/><path d="M20.203 42.253a.39.39 0 0 1-.195-.032c.067-.003.134.008.195.032z" class="B D"/><path d="M52.992 51.196c.622-.895 1.322-1.19 2.112-1.889.752-.664 1.329-1.465 2.077-2.118.586.115 1.245.022 1.846.051.43.999 2.518.048 2.708-.597l.277.391c.603 1.116-1.557 1.19-2.786 1.074-.863-.08-4.586.84-4.463 5.357-.419.605-1.407.014-1.408.804-.001.808.013 2.232.755 2.747-.212.704-.95-.041-1.154-.322-.455-.632-1.106-1.75-1.254-2.5-.25-1.279.608-2.026 1.288-2.998z" class="B F"/></g></symbol></svg>