<?xml version="1.0" standalone="no"?>
<!DOCTYPE svg PUBLIC "-//W3C//DTD SVG 20010904//EN"
 "http://www.w3.org/TR/2001/REC-SVG-20010904/DTD/svg10.dtd">
<svg version="1.0" xmlns="http://www.w3.org/2000/svg"
 width="1024.000000pt" height="1024.000000pt" viewBox="0 0 1024.000000 1024.000000"
 preserveAspectRatio="xMidYMid meet">
<metadata>
Created by potrace 1.11, written by Peter Selinger 2001-2013
</metadata>
<g transform="translate(0.000000,1024.000000) scale(0.100000,-0.100000)"
fill="#000000" stroke="none">
<path d="M1840 10230 c-30 -4 -77 -11 -105 -15 -130 -18 -304 -65 -439 -120
-86 -35 -218 -97 -251 -118 -11 -6 -56 -34 -100 -62 -483 -301 -833 -838 -920
-1410 -3 -16 -8 -48 -12 -70 -4 -22 -8 -1502 -9 -3290 -3 -3485 -5 -3307 46
-3540 129 -595 543 -1123 1090 -1391 173 -85 362 -147 540 -179 19 -4 60 -12
90 -18 66 -13 6520 -20 6615 -7 33 4 85 11 115 14 97 13 315 68 395 101 17 6
66 27 110 45 606 250 1085 852 1199 1507 9 48 19 104 23 123 4 19 8 1493 9
3275 2 2730 1 3258 -11 3356 -56 463 -268 895 -596 1216 -115 113 -176 163
-304 248 -219 146 -431 237 -688 295 -223 50 -78 48 -3522 48 -1771 -1 -3245
-4 -3275 -8z"/>
</g>
</svg>
